<svg version="1.1" id="Illustration" xmlns="http://www.w3.org/2000/svg" xmlns:xlink="http://www.w3.org/1999/xlink" x="0px"
	 y="0px" viewBox="0 0 2776.79 2761.3" style="enable-background:new 0 0 2776.79 2761.3;" xml:space="preserve">
<style type="text/css">
	.st0{fill:#F4F7FA;}
	.st1{fill:url(#SVGID_1_);}
	.st2{opacity:0.2;fill:url(#SVGID_2_);}
	.st3{fill:url(#SVGID_3_);}
	.st4{fill:url(#SVGID_4_);}
	.st5{fill:url(#SVGID_5_);}
	.st6{fill:url(#SVGID_6_);}
	.st7{fill:url(#SVGID_7_);}
	.st8{fill:url(#SVGID_8_);}
	.st9{fill:url(#SVGID_9_);}
	.st10{fill:url(#SVGID_10_);}
	.st11{opacity:0.6;fill:url(#SVGID_11_);}
	.st12{fill:url(#SVGID_12_);}
	.st13{fill:url(#SVGID_13_);}
	.st14{fill:url(#SVGID_14_);}
	.st15{fill:url(#SVGID_15_);}
	.st16{fill:url(#SVGID_16_);}
	.st17{fill:url(#SVGID_17_);}
	.st18{opacity:0.3;fill:url(#SVGID_18_);}
	.st19{fill:url(#SVGID_19_);}
	.st20{fill:url(#SVGID_20_);}
	.st21{fill:url(#SVGID_21_);}
	.st22{fill:url(#SVGID_22_);}
	.st23{fill:url(#SVGID_23_);}
	.st24{fill:url(#SVGID_24_);}
	.st25{opacity:0.3;fill:url(#SVGID_25_);}
	.st26{fill:#FFFFFF;}
	.st27{fill:url(#SVGID_26_);}
	.st28{fill:url(#SVGID_27_);}
	.st29{fill:url(#SVGID_28_);}
	.st30{fill:url(#SVGID_29_);}
	.st31{opacity:0.3;fill:url(#SVGID_30_);}
	.st32{fill:url(#SVGID_31_);}
	.st33{fill:url(#SVGID_32_);}
	.st34{fill:url(#SVGID_33_);}
	.st35{fill:url(#SVGID_34_);}
	.st36{fill:url(#SVGID_35_);}
	.st37{fill:url(#SVGID_36_);}
	.st38{fill:url(#SVGID_37_);}
	.st39{opacity:0.6;fill:url(#SVGID_38_);}
	.st40{fill:url(#SVGID_39_);}
	.st41{fill:url(#SVGID_40_);}
	.st42{fill:url(#SVGID_41_);}
	.st43{fill:url(#SVGID_42_);}
	.st44{opacity:0.3;fill:url(#SVGID_43_);}
	.st45{fill:url(#SVGID_44_);}
	.st46{fill:url(#SVGID_45_);}
	.st47{fill:url(#SVGID_46_);}
	.st48{fill:url(#SVGID_47_);}
	.st49{fill:url(#SVGID_48_);}
	.st50{fill:url(#SVGID_49_);}
	.st51{opacity:0.3;fill:url(#SVGID_50_);}
	.st52{fill:url(#SVGID_51_);}
	.st53{fill:url(#SVGID_52_);}
	.st54{fill:#97A6B7;}
	.st55{fill:#D8DEE8;}
	.st56{fill:url(#SVGID_53_);}
	.st57{opacity:0.5;fill:url(#SVGID_54_);}
	.st58{fill:url(#SVGID_55_);}
	.st59{fill:url(#SVGID_56_);}
	.st60{fill:url(#SVGID_57_);}
	.st61{fill:url(#SVGID_58_);}
	.st62{fill:url(#SVGID_59_);}
	.st63{fill:url(#SVGID_60_);}
	.st64{opacity:0.5;fill:url(#SVGID_61_);}
	.st65{fill:url(#SVGID_62_);}
	.st66{opacity:0.5;fill:url(#SVGID_63_);}
	.st67{fill:url(#SVGID_64_);}
	.st68{fill:url(#SVGID_65_);}
	.st69{fill:url(#SVGID_66_);}
	.st70{fill:url(#SVGID_67_);}
	.st71{fill:url(#SVGID_68_);}
	.st72{fill:url(#SVGID_69_);}
	.st73{fill:url(#SVGID_70_);}
	.st74{fill:url(#SVGID_71_);}
	.st75{fill:url(#SVGID_72_);}
	.st76{fill:url(#SVGID_73_);}
	.st77{fill:url(#SVGID_74_);}
	.st78{fill:url(#SVGID_75_);}
	.st79{fill:url(#SVGID_76_);}
	.st80{fill:url(#SVGID_77_);}
	.st81{fill:url(#SVGID_78_);}
	.st82{fill:url(#SVGID_79_);}
	.st83{fill:url(#SVGID_80_);}
	.st84{fill:url(#SVGID_81_);}
	.st85{fill:url(#SVGID_82_);}
</style>
<g>
	<path class="st0" d="M2735.95,1179.44C2660.69,686.8,2352.1,81.56,1742.47,18.22c0,0-462.86-56.3-919.15,29.03
		c-270.8,50.64-508.26,201.39-658.51,418.06C14.56,681.98-35.63,946.18,25.28,1198.06c39.56,163.6,66.29,332.92,58.96,501.02
		c-12.77,292.57-5.42,565.67,278.51,740.15c253.52,155.79,572.58,293.2,876.97,317.27c206.86,16.36,438.84-10.11,638.22-63.97
		C2894,2418.07,2811.21,1672.07,2735.95,1179.44z"/>
	<g>
		<g>
			<linearGradient id="SVGID_1_" gradientUnits="userSpaceOnUse" x1="356.6122" y1="2087.365" x2="1181.3044" y2="2488.8604">
				<stop  offset="0" style="stop-color:#FF9085"/>
				<stop  offset="1" style="stop-color:#FB6FBB"/>
			</linearGradient>
			<path class="st1" d="M856.12,2439.74c32.36-22.49,101.02-77.21,131.57-170.91c48.43-148.52-21.61-325.31-158.7-408.28
				c-162.47-98.33-338.16-15.86-359.45-5.43C348,1914.7,297.17,2020.1,268.8,2078.94c-49.82,103.32-118.43,324.85-17.63,410.99
				c59,50.41,152.23,34.12,261.81,14.97c110.87-19.37,139.3-55.3,146.46-65.16c27.23-37.49,14.48-66.49,25.67-131.62
				c18.12-105.42,84.59-221.76,135.1-218.07c41.15,3.01,70.85,85.62,76.24,142.31c9.2,96.65-47.49,167.85-62.59,185.69
				C841.28,2425.29,848.7,2432.51,856.12,2439.74z"/>
			<linearGradient id="SVGID_2_" gradientUnits="userSpaceOnUse" x1="213.1761" y1="2269.2175" x2="661.4822" y2="2269.2175">
				<stop  offset="0" style="stop-color:#FF9085"/>
				<stop  offset="1" style="stop-color:#FB6FBB"/>
			</linearGradient>
			<path class="st2" d="M533.3,2286.47c-44.16-69.88,95.21-193.37,58.33-248.22c-26.03-38.7-127.67-25.15-196.68,10.85
				c-124.51,64.94-157.62,210.66-169.55,263.14c-9.94,43.72-13.02,85.09-12.05,122.8c8.27,21.42,20.56,40.14,37.82,54.89
				c59,50.41,152.23,34.12,261.81,14.97c110.87-19.37,139.3-55.3,146.46-65.16c0.71-0.98,1.38-1.95,2.04-2.92
				c-0.27-36.49-8.65-70.57-31.88-94.74C595.06,2306.15,554.33,2319.75,533.3,2286.47z"/>
			<linearGradient id="SVGID_3_" gradientUnits="userSpaceOnUse" x1="314.0918" y1="2174.7031" x2="1138.7823" y2="2576.1978">
				<stop  offset="0" style="stop-color:#FF9085"/>
				<stop  offset="1" style="stop-color:#FB6FBB"/>
			</linearGradient>
			<path class="st3" d="M530.87,2447.81c0,0-234.95,18.57-187.47-155.48s207.27-306.57,207.27-306.57l-81.12-130.63
				c0,0-379.64,174.97-426.51,457.11c-46.87,282.13,461.66,184.14,461.66,184.14L530.87,2447.81z"/>
			<linearGradient id="SVGID_4_" gradientUnits="userSpaceOnUse" x1="641.809" y1="2466.437" x2="643.1654" y2="2466.437">
				<stop  offset="0" style="stop-color:#FFC444"/>
				<stop  offset="0.9964" style="stop-color:#F36F56"/>
			</linearGradient>
			<path class="st4" d="M651.71,2490.42c0,0-14.28-47.78-36.5-58.72c-22.22-10.94-84.33,16.12-84.33,16.12s-27.86,38.9-26.18,48.57
				c1.68,9.67,51.76,11.92,69.33-5.96c17.57-17.89,41.62-20.36,51.99-5C636.38,2500.78,651.71,2490.42,651.71,2490.42z"/>
			<linearGradient id="SVGID_5_" gradientUnits="userSpaceOnUse" x1="928.9254" y1="2560.4036" x2="597.9639" y2="2351.5178">
				<stop  offset="0" style="stop-color:#311944"/>
				<stop  offset="1" style="stop-color:#A03976"/>
			</linearGradient>
			<polygon class="st5" points="525.21,2518.37 630.98,2571.99 1046.2,2442.44 1045.08,2420.95 914.37,2412.09 530.87,2492.04 			
				"/>
			<linearGradient id="SVGID_6_" gradientUnits="userSpaceOnUse" x1="530.8736" y1="1812.774" x2="745.0476" y2="1812.774">
				<stop  offset="0" style="stop-color:#FFC444"/>
				<stop  offset="0.9964" style="stop-color:#F36F56"/>
			</linearGradient>
			<path class="st6" d="M647.64,1735.51l-24.36,52.28c-5.04,10.82-14.48,18.96-25.92,22.37l-66.49,19.79c0,0,145.33,62.71,148.03,60
				c2.7-2.71,66.15-65.31,66.15-65.31l-21.74-7.9c-13.14-4.77-22.2-16.89-23.06-30.84l-2.5-40.19L647.64,1735.51z"/>
			<g>
				<g>
					
						<linearGradient id="SVGID_7_" gradientUnits="userSpaceOnUse" x1="1262.0337" y1="1646.2927" x2="1241.0256" y2="1676.2551" gradientTransform="matrix(0.9943 0.1063 -0.1063 0.9943 -300.1754 -55.6605)">
						<stop  offset="0" style="stop-color:#AA80F9"/>
						<stop  offset="0.9964" style="stop-color:#6165D7"/>
					</linearGradient>
					<path class="st7" d="M756.22,1695.7l4.22,0.45c17.39,1.86,29.45,22.39,26.95,45.86l-0.14,1.32
						c-2.51,23.47-18.64,40.99-36.03,39.13l-4.22-0.45c-8.77-0.94-13.82-21.02-11.27-44.85
						C738.27,1713.32,747.44,1694.76,756.22,1695.7z"/>
					
						<linearGradient id="SVGID_8_" gradientUnits="userSpaceOnUse" x1="1223.8145" y1="1693.7628" x2="1264.509" y2="1610.1128" gradientTransform="matrix(0.9943 0.1063 -0.1063 0.9943 -300.1754 -55.6605)">
						<stop  offset="0" style="stop-color:#AA80F9"/>
						<stop  offset="0.9964" style="stop-color:#6165D7"/>
					</linearGradient>
					<path class="st8" d="M725.81,1736.1c-2.79,26.09,5.12,48.32,18.07,49.71c12.96,1.39,26.07-18.6,28.85-44.69
						c2.79-26.09-5.8-48.39-18.76-49.78C741.02,1689.95,728.6,1710.01,725.81,1736.1z"/>
					
						<linearGradient id="SVGID_9_" gradientUnits="userSpaceOnUse" x1="1253.522" y1="1659.2566" x2="1260.4288" y2="1654.9504" gradientTransform="matrix(0.9943 0.1063 -0.1063 0.9943 -300.1754 -55.6605)">
						<stop  offset="0" style="stop-color:#444B8C"/>
						<stop  offset="0.9964" style="stop-color:#3E4177"/>
					</linearGradient>
					<polygon class="st9" points="744.56,1785.87 739.61,1785.35 749.71,1690.88 754.66,1691.4 					"/>
					
						<linearGradient id="SVGID_10_" gradientUnits="userSpaceOnUse" x1="1259.8193" y1="1636.8398" x2="1238.6965" y2="1661.8658" gradientTransform="matrix(0.9943 0.1063 -0.1063 0.9943 -300.1754 -55.6605)">
						<stop  offset="0" style="stop-color:#AA80F9"/>
						<stop  offset="0.9964" style="stop-color:#6165D7"/>
					</linearGradient>
					<path class="st10" d="M721.2,1735.6c-2.79,26.09,5.46,48.36,18.42,49.74c12.96,1.39,25.72-18.64,28.51-44.73
						c2.79-26.09-5.46-48.36-18.42-49.74C736.75,1689.49,723.98,1709.52,721.2,1735.6z"/>
					
						<linearGradient id="SVGID_11_" gradientUnits="userSpaceOnUse" x1="1216.8103" y1="1672.5939" x2="1242.4727" y2="1672.5939" gradientTransform="matrix(0.9943 0.1063 -0.1063 0.9943 -300.1754 -55.6605)">
						<stop  offset="3.597120e-03" style="stop-color:#6165D7"/>
						<stop  offset="1" style="stop-color:#AA80F9"/>
					</linearGradient>
					<path class="st11" d="M731.9,1736.75c-1.52,14.18,2.97,26.29,10.01,27.05c7.05,0.75,13.99-10.14,15.5-24.32
						c1.52-14.18-2.97-26.29-10.01-27.05C740.36,1711.67,733.42,1722.56,731.9,1736.75z"/>
				</g>
				
					<linearGradient id="SVGID_12_" gradientUnits="userSpaceOnUse" x1="-12789.2256" y1="2646.3228" x2="-12787.5127" y2="2646.3228" gradientTransform="matrix(-0.9495 -0.3138 -0.3138 0.9495 7294.8174 1106.3824)">
					<stop  offset="0" style="stop-color:#311944"/>
					<stop  offset="1" style="stop-color:#A03976"/>
				</linearGradient>
				<path class="st12" d="M746.8,1732.48c16.36-10.61,25.77-36.01,18.15-56.89c-6.55-17.96-23.61-26.23-33.82-31.18
					c-29.52-14.32-72.36-15.54-95.02,7.15c-13.41,13.43-7.66,53.29-7.02,60.32c0.73,7.95,5.44,12.28,8.79,19.3
					c4.64,9.73,11.86,25.15,23.48,50.8c3.32-5.14,7.83-11.36,13.79-17.71c2.3-2.45,11.42-11.96,22.6-18.55
					C720.17,1732.47,731.31,1742.53,746.8,1732.48z"/>
				
					<linearGradient id="SVGID_13_" gradientUnits="userSpaceOnUse" x1="-5622.9478" y1="365.3375" x2="-5622.9478" y2="363.9811" gradientTransform="matrix(0.9669 0.2551 -0.2551 0.9669 6711.7812 937.507)">
					<stop  offset="0" style="stop-color:#FFC444"/>
					<stop  offset="0.9964" style="stop-color:#F36F56"/>
				</linearGradient>
				<path class="st13" d="M641,1756.6c0,0,9.21,39.34,50.1,51.26c36.72,10.71,68.66-65.91,51.29-90.82
					c-5.79-8.3-20.38-16.09-34.01-17.14c-8.05-0.62-11.55,1.47-24.67,0.21c-12.09-1.16-14.83-3.49-19.12-1.93
					c-5.36,1.95-11.3,9.3-12.03,34.7c-4.55-9.19-11.86-14.71-18.57-14.12c-1.07,0.1-4.07,0.85-6.29,2.82
					C619.69,1728.72,624.2,1743.13,641,1756.6z"/>
				
					<linearGradient id="SVGID_14_" gradientUnits="userSpaceOnUse" x1="-12789.04" y1="2692.1421" x2="-12787.3271" y2="2692.1421" gradientTransform="matrix(-0.9495 -0.3138 -0.3138 0.9495 7294.8174 1106.3824)">
					<stop  offset="0" style="stop-color:#311944"/>
					<stop  offset="1" style="stop-color:#A03976"/>
				</linearGradient>
				<path class="st14" d="M664.55,1692.92c1.3,1.87-6.1,6.27-9.5,15.03c-6.6,16.98,4.3,44.13,22,52.46
					c10.47,4.93,15.6-0.35,34.15,4.24c11.5,2.85,20.29,7.55,25.69,10.88c-0.79,21.01-12.52,38-28.53,42.06
					c-17.21,4.36-33.15-7.82-39.81-12.91c-4.45-3.4-18.72-14.27-22.24-31.57c-3.66-18.02,7.91-23.93,1.33-37.59
					c-3.32-6.89-9.18-11.46-12.29-23.6c-0.84-3.3-1.21-6.08-1.39-7.92C646.41,1697.74,662.66,1690.2,664.55,1692.92z"/>
				
					<linearGradient id="SVGID_15_" gradientUnits="userSpaceOnUse" x1="6041.0781" y1="-488.1767" x2="6041.0781" y2="-489.5331" gradientTransform="matrix(-0.9495 -0.3138 -0.3138 0.9495 7294.8174 1106.3824)">
					<stop  offset="0" style="stop-color:#FFC444"/>
					<stop  offset="1" style="stop-color:#F36F56"/>
				</linearGradient>
				<path class="st15" d="M721.44,1777.86c0,0-9.11,1.15-22.27-4.41c-0.64-0.27-1.42-0.34-1.62-0.04
					c-0.73,1.13,5.99,9.77,14.66,10.46c6.16,0.49,12.3-3.12,11.99-4.72C724.06,1778.48,722.76,1778.09,721.44,1777.86z"/>
				<g>
					
						<linearGradient id="SVGID_16_" gradientUnits="userSpaceOnUse" x1="1133.6646" y1="1345.923" x2="1173.1195" y2="1264.821" gradientTransform="matrix(1.0295 0.11 -0.1166 1.0914 -324.3535 131.9902)">
						<stop  offset="0" style="stop-color:#AA80F9"/>
						<stop  offset="0.9964" style="stop-color:#6165D7"/>
					</linearGradient>
					<path class="st16" d="M647.83,1698.7l-5.37-0.63l1.9-16.59c3.27-28.61,25.64-49.92,50.94-48.51l27.07,1.51
						c14.16,0.79,26.91,7.92,35.91,20.08c9,12.16,13.02,27.68,11.3,43.7l-1.42,13.27l-5.37-0.57l1.42-13.27
						c1.53-14.34-2.06-28.23-10.12-39.11c-8.06-10.88-19.47-17.26-32.13-17.97l-27.07-1.51c-22.42-1.25-42.26,17.64-45.16,43.01
						L647.83,1698.7z"/>
					<g>
						
							<linearGradient id="SVGID_17_" gradientUnits="userSpaceOnUse" x1="1160.4106" y1="1244.7485" x2="1151.9091" y2="1272.9669" gradientTransform="matrix(1.0295 0.11 -0.1166 1.0914 -324.3535 131.9902)">
							<stop  offset="0" style="stop-color:#AA80F9"/>
							<stop  offset="0.9964" style="stop-color:#6165D7"/>
						</linearGradient>
						<path class="st17" d="M757.22,1668.65c-2.18-0.23-4.25-1.47-5.63-3.62c-7.03-10.95-17.98-17.62-30.04-18.29l-27.08-1.51
							c-9.46-0.53-18.72,3.04-26.07,10.05c-3.48,3.31-8.59,2.87-11.42-0.98c-2.83-3.85-2.3-9.67,1.18-12.98
							c10.6-10.09,23.93-15.23,37.55-14.48l27.07,1.51c16.88,0.94,32.19,10.26,42.02,25.58c2.6,4.06,1.75,9.83-1.9,12.89
							C761.19,1668.27,759.16,1668.85,757.22,1668.65z"/>
						
							<linearGradient id="SVGID_18_" gradientUnits="userSpaceOnUse" x1="1160.4509" y1="1244.6151" x2="1151.9282" y2="1272.9031" gradientTransform="matrix(1.0295 0.11 -0.1166 1.0914 -324.3535 131.9902)">
							<stop  offset="0" style="stop-color:#AA80F9"/>
							<stop  offset="0.9964" style="stop-color:#6165D7"/>
						</linearGradient>
						<path class="st18" d="M747.86,1648.8c-19.11-8.67-18.57-14.7-28.87-16.27c-19.26-2.93-29.29,16.93-47.85,12.19
							c-4.35-1.11-7.92-3.26-10.69-5.46c-0.78,0.66-1.54,1.35-2.29,2.06c-3.48,3.31-4.01,9.12-1.18,12.98
							c2.83,3.85,7.94,4.29,11.42,0.98c7.36-7.01,16.62-10.58,26.07-10.05l27.08,1.51c12.06,0.67,23.01,7.34,30.04,18.29
							c1.38,2.15,3.45,3.38,5.63,3.62c1.94,0.21,3.97-0.38,5.69-1.82c3.31-2.78,4.32-7.78,2.54-11.71
							C760.29,1653.73,754.3,1651.73,747.86,1648.8z"/>
					</g>
				</g>
				<g>
					<g>
						
							<linearGradient id="SVGID_19_" gradientUnits="userSpaceOnUse" x1="1103.7294" y1="1671.8154" x2="1151.4467" y2="1671.8154" gradientTransform="matrix(0.9943 0.1063 -0.1063 0.9943 -300.1754 -55.6605)">
							<stop  offset="0" style="stop-color:#AA80F9"/>
							<stop  offset="0.9964" style="stop-color:#6165D7"/>
						</linearGradient>
						<path class="st19" d="M666.99,1729.02c-2.82,26.37-15.72,46.62-28.83,45.22c-13.1-1.4-21.44-23.92-18.62-50.29
							c2.82-26.37,15.72-46.62,28.83-45.22C661.48,1680.13,669.81,1702.65,666.99,1729.02z"/>
						
							<linearGradient id="SVGID_20_" gradientUnits="userSpaceOnUse" x1="1108.3368" y1="1680.287" x2="1070.0363" y2="1702.5709" gradientTransform="matrix(0.9943 0.1063 -0.1063 0.9943 -300.1754 -55.6605)">
							<stop  offset="0" style="stop-color:#AA80F9"/>
							<stop  offset="0.9964" style="stop-color:#6165D7"/>
						</linearGradient>
						<path class="st20" d="M662.33,1728.53c-2.82,26.37-15.72,46.62-28.83,45.22c-13.1-1.4-21.44-23.92-18.62-50.29
							c2.82-26.37,15.72-46.62,28.83-45.22C656.81,1679.63,665.15,1702.15,662.33,1728.53z"/>
						
							<linearGradient id="SVGID_21_" gradientUnits="userSpaceOnUse" x1="1081.1147" y1="1671.8162" x2="1133.5778" y2="1671.8162" gradientTransform="matrix(0.9943 0.1063 -0.1063 0.9943 -300.1754 -55.6605)">
							<stop  offset="0" style="stop-color:#AA80F9"/>
							<stop  offset="0.9964" style="stop-color:#6165D7"/>
						</linearGradient>
						<path class="st21" d="M637.83,1681.78l-4.27-0.46c-17.58-1.88-33.89,15.83-36.43,39.56l-0.14,1.33
							c-2.54,23.73,9.66,44.49,27.24,46.37l4.27,0.46c8.87,0.95,18.15-17.82,20.72-41.91
							C651.8,1703.03,646.7,1682.73,637.83,1681.78z"/>
					</g>
					
						<linearGradient id="SVGID_22_" gradientUnits="userSpaceOnUse" x1="1081.1149" y1="1671.1436" x2="1112.6636" y2="1671.1436" gradientTransform="matrix(0.9943 0.1063 -0.1063 0.9943 -300.1754 -55.6605)">
						<stop  offset="0" style="stop-color:#AA80F9"/>
						<stop  offset="0.9964" style="stop-color:#6165D7"/>
					</linearGradient>
					<path class="st22" d="M628.5,1724.23c-1.86,17.39-10.39,30.74-19.05,29.82c-8.66-0.93-14.18-15.78-12.32-33.17
						c1.86-17.39,10.39-30.74,19.05-29.82C624.85,1691.99,630.36,1706.84,628.5,1724.23z"/>
				</g>
			</g>
		</g>
		<g>
			
				<linearGradient id="SVGID_23_" gradientUnits="userSpaceOnUse" x1="-582.393" y1="2194.5715" x2="198.399" y2="2194.5715" gradientTransform="matrix(-1 0 0 1 883.5927 0)">
				<stop  offset="0" style="stop-color:#AA80F9"/>
				<stop  offset="0.9964" style="stop-color:#6165D7"/>
			</linearGradient>
			<path class="st23" d="M685.19,2562.52l40.34-532.33c0.64-8.42,7.85-16.28,17.41-18.97l690.48-194.1
				c6.18-1.74,18.03-0.04,22.74,2.88c4.7,2.92,10.04,2.29,9.81,7.72l-28.86,491.95c-0.48,8.18-7.21,15.94-16.42,18.93l-720.67,234.1
				L685.19,2562.52z"/>
			
				<linearGradient id="SVGID_24_" gradientUnits="userSpaceOnUse" x1="-44.5868" y1="1961.3976" x2="-447.7912" y2="2574.1101" gradientTransform="matrix(-1 0 0 1 883.5927 0)">
				<stop  offset="0" style="stop-color:#AA80F9"/>
				<stop  offset="0.9964" style="stop-color:#6165D7"/>
			</linearGradient>
			<path class="st24" d="M700.03,2572.72l41.81-536.79c0.65-8.41,7.86-16.25,17.4-18.93l690.52-194.11
				c6.18-1.74,12.5-1.05,17.21,1.87c4.71,2.92,7.3,7.76,7.07,13.2l-20.79,487.07c-0.36,8.37-7.29,16.35-16.77,19.29L700.03,2572.72z
				"/>
			
				<linearGradient id="SVGID_25_" gradientUnits="userSpaceOnUse" x1="-575.9203" y1="2375.4207" x2="183.5624" y2="2375.4207" gradientTransform="matrix(-1 0 0 1 883.5927 0)">
				<stop  offset="0" style="stop-color:#AA80F9"/>
				<stop  offset="0.9964" style="stop-color:#6165D7"/>
			</linearGradient>
			<path class="st25" d="M700.03,2572.71l736.44-228.4c9.48-2.94,16.41-10.92,16.77-19.29l6.27-146.89
				c-218.62,139.5-493.88,193.36-750.08,273.92L700.03,2572.71z"/>
			<path class="st26" d="M1066.48,2589.06l-26.12,16.22c0,0-124.03-55-131.45-58.3c-1.18-0.52-6.28-6.87,0-9.49
				c33.23-13.83,160.05-46.61,160.05-46.61l66,31.35L1066.48,2589.06z"/>
			
				<linearGradient id="SVGID_26_" gradientUnits="userSpaceOnUse" x1="-59.5895" y1="2477.876" x2="-267.1194" y2="2602.394" gradientTransform="matrix(-1 0 0 1 883.5927 0)">
				<stop  offset="0" style="stop-color:#AA80F9"/>
				<stop  offset="0.9964" style="stop-color:#6165D7"/>
			</linearGradient>
			<path class="st27" d="M1066.48,2579.57l-26.12,16.23c0,0-124.03-55-131.45-58.3c-7.42-3.3,160.05-56.1,160.05-56.1l66,31.35
				L1066.48,2579.57z"/>
			<path class="st26" d="M1195.46,2168.58c0,0,62.7,335.5,69.3,354.2c6.09,17.26-171.49,73.26-213.95,83.88
				c-3.53,0.88-8.79-0.66-10.45-1.38c-12.1,1.1,44.28-405.08,44.28-405.08l4.12-0.82L1195.46,2168.58z"/>
			
				<linearGradient id="SVGID_27_" gradientUnits="userSpaceOnUse" x1="-200.5085" y1="2223.5393" x2="-350.7216" y2="2856.0161" gradientTransform="matrix(-1 0 0 1 883.5927 0)">
				<stop  offset="0" style="stop-color:#AA80F9"/>
				<stop  offset="0.9964" style="stop-color:#6165D7"/>
			</linearGradient>
			<path class="st28" d="M1195.46,2168.58c0,0,73.7,336.6,80.3,355.3c6.6,18.7-205.7,79.2-224.4,82.5c-12.1,1.1,37.4-407,37.4-407
				L1195.46,2168.58z"/>
		</g>
	</g>
	<g>
		<g>
			
				<linearGradient id="SVGID_28_" gradientUnits="userSpaceOnUse" x1="1141.5868" y1="2520.2776" x2="1704.1116" y2="2520.2776" gradientTransform="matrix(-1 0 0 1 3641.6829 0)">
				<stop  offset="0" style="stop-color:#444B8C"/>
				<stop  offset="0.9964" style="stop-color:#26264F"/>
			</linearGradient>
			<polygon class="st29" points="2500.1,2546.83 2061.38,2427.5 1937.57,2453.09 1937.57,2473.21 2342.07,2613.06 			"/>
			
				<linearGradient id="SVGID_29_" gradientUnits="userSpaceOnUse" x1="1229.972" y1="2797.8037" x2="1506.1184" y2="1932.5436" gradientTransform="matrix(-1 0 0 1 3641.6829 0)">
				<stop  offset="0" style="stop-color:#311944"/>
				<stop  offset="1" style="stop-color:#A03976"/>
			</linearGradient>
			<path class="st30" d="M2420.32,2493.39c37.45,16.37,88.15,38.87,156.49,36.82c43.52-1.31,67.29-2.02,82.85-16.88
				c51.83-49.47-38.35-211.65-220.81-533.99c-58.35-103.09-96.71-165.16-173.69-194.3c-87.39-33.09-171.44-3.62-202.31,7.21
				c-21.78,7.64-198.66,72.85-231.67,240.87c-26.97,137.3,52.98,288.05,199.45,359.01c8.69-12.27,17.39-24.55,26.08-36.82
				c-13.4-21.57-39.15-69.68-39.89-135.01c-0.79-70.02,27.24-152.89,50.63-151.89c37.29,1.6-6.64,213.32,121.2,326.79
				C2209.34,2413.56,2196.41,2395.52,2420.32,2493.39z"/>
			
				<linearGradient id="SVGID_30_" gradientUnits="userSpaceOnUse" x1="1219.6589" y1="2794.5122" x2="1495.8051" y2="1929.2529" gradientTransform="matrix(-1 0 0 1 3641.6829 0)">
				<stop  offset="0" style="stop-color:#311944"/>
				<stop  offset="1" style="stop-color:#A03976"/>
			</linearGradient>
			<path class="st31" d="M1897.15,2134.38c8.04-56.07,33.03-230.43,141.15-273.09c84.77-33.45,168.62,34.59,208.65-7.67
				c16.2-17.1,17.53-44.14,13.65-70.2c1.52,0.54,3.03,1.05,4.55,1.62c76.98,29.14,115.34,91.22,173.69,194.3
				c182.47,322.34,272.64,484.51,220.81,533.99c-15.56,14.85-39.33,15.57-82.85,16.88c-68.34,2.05-119.05-20.45-156.49-36.82
				c-223.9-97.87-210.98-79.83-231.67-98.19c-127.85-113.47-83.92-325.19-121.2-326.79c-23.39-1.01-51.42,81.87-50.63,151.89
				c0.74,65.33,26.49,113.44,39.89,135.01c-8.69,12.27-17.39,24.55-26.08,36.82c-54.3-26.31-99.44-63.6-133.4-107.09
				C1890.93,2240.58,1889.22,2189.66,1897.15,2134.38z"/>
			
				<linearGradient id="SVGID_31_" gradientUnits="userSpaceOnUse" x1="931.509" y1="2702.5503" x2="1207.6547" y2="1837.2926" gradientTransform="matrix(-1 0 0 1 3641.6829 0)">
				<stop  offset="0" style="stop-color:#311944"/>
				<stop  offset="1" style="stop-color:#A03976"/>
			</linearGradient>
			<path class="st32" d="M2506.23,2473.21l-29.4-12.16c0,0,164.41-166.44-143.97-505.84c0,0-151.9-194.62-76.33-177.73
				c97.9,21.88,258,68.69,405.74,270.33S2725.27,2425.9,2506.23,2473.21z"/>
			
				<linearGradient id="SVGID_32_" gradientUnits="userSpaceOnUse" x1="1135.4203" y1="2485.0706" x2="1307.738" y2="2485.0706" gradientTransform="matrix(-1 0 0 1 3641.6829 0)">
				<stop  offset="0" style="stop-color:#FFC444"/>
				<stop  offset="0.9964" style="stop-color:#F36F56"/>
			</linearGradient>
			<path class="st33" d="M2506.23,2473.21c0,0-16.28-20.54-54.93-23.2c-38.65-2.65-100.15,23.03-112.3,41.43
				c-12.14,18.4-0.56,29.65,15.06,28.84c15.62-0.81,37.1-22.29,66.25-26.89C2449.47,2488.78,2507.77,2532.16,2506.23,2473.21z"/>
			
				<linearGradient id="SVGID_33_" gradientUnits="userSpaceOnUse" x1="1385.1497" y1="1762.1161" x2="1569.251" y2="1762.1161" gradientTransform="matrix(-1 0 0 1 3641.6829 0)">
				<stop  offset="0" style="stop-color:#FFC444"/>
				<stop  offset="0.9964" style="stop-color:#F36F56"/>
			</linearGradient>
			<path class="st34" d="M2101.3,1789.24c9.13-7.17,11.03-20.24,4.32-29.71l-19.76-27.88l20.61-38.1l72.54,54.3
				c19.26,14.41,41.73,23.93,65.49,27.71l12.04,1.92c0,0-69.87,37.91-105.7,50.12c-35.83,12.21-78.4-15.7-78.4-15.7L2101.3,1789.24z
				"/>
			<g>
				<g>
					
						<linearGradient id="SVGID_34_" gradientUnits="userSpaceOnUse" x1="864.6108" y1="1867.4789" x2="842.6102" y2="1898.8567" gradientTransform="matrix(-0.9799 -0.1993 -0.1993 0.9799 3221.3674 -31.299)">
						<stop  offset="0" style="stop-color:#AA80F9"/>
						<stop  offset="0.9964" style="stop-color:#6165D7"/>
					</linearGradient>
					<path class="st35" d="M2031.59,1614.08l-4.36-0.89c-17.95-3.65-36.49,13.03-41.42,37.25l-0.28,1.36
						c-4.93,24.22,5.63,46.82,23.58,50.47l4.36,0.89c9.05,1.84,20.45-16.61,25.45-41.2
						C2043.93,1637.35,2040.64,1615.92,2031.59,1614.08z"/>
					
						<linearGradient id="SVGID_35_" gradientUnits="userSpaceOnUse" x1="824.5859" y1="1917.1906" x2="867.203" y2="1829.5889" gradientTransform="matrix(-0.9799 -0.1993 -0.1993 0.9799 3221.3674 -31.299)">
						<stop  offset="0" style="stop-color:#AA80F9"/>
						<stop  offset="0.9964" style="stop-color:#6165D7"/>
					</linearGradient>
					<path class="st36" d="M2049.15,1664.03c-5.48,26.92-20.4,46.62-33.78,43.9c-13.37-2.72-20.13-26.82-14.66-53.75
						c5.48-26.92,21.11-46.47,34.48-43.75C2048.58,1613.15,2054.63,1637.11,2049.15,1664.03z"/>
					
						<linearGradient id="SVGID_36_" gradientUnits="userSpaceOnUse" x1="855.6984" y1="1881.0531" x2="862.9321" y2="1876.5432" gradientTransform="matrix(-0.9799 -0.1993 -0.1993 0.9799 3221.3674 -31.299)">
						<stop  offset="0" style="stop-color:#444B8C"/>
						<stop  offset="0.9964" style="stop-color:#3E4177"/>
					</linearGradient>
					<polygon class="st37" points="2014.68,1707.79 2019.78,1708.82 2039.61,1611.33 2034.51,1610.29 					"/>
					
						<linearGradient id="SVGID_37_" gradientUnits="userSpaceOnUse" x1="862.2922" y1="1857.5775" x2="840.1712" y2="1883.786" gradientTransform="matrix(-0.9799 -0.1993 -0.1993 0.9799 3221.3674 -31.299)">
						<stop  offset="0" style="stop-color:#AA80F9"/>
						<stop  offset="0.9964" style="stop-color:#6165D7"/>
					</linearGradient>
					<path class="st38" d="M2053.91,1665c-5.47,26.92-20.76,46.54-34.13,43.82c-13.37-2.72-19.78-26.75-14.3-53.67
						c5.48-26.92,20.76-46.54,34.13-43.82C2052.99,1614.05,2059.39,1638.08,2053.91,1665z"/>
					
						<linearGradient id="SVGID_38_" gradientUnits="userSpaceOnUse" x1="817.2514" y1="1895.0211" x2="844.1254" y2="1895.0211" gradientTransform="matrix(-0.9799 -0.1993 -0.1993 0.9799 3221.3674 -31.299)">
						<stop  offset="3.597120e-03" style="stop-color:#6165D7"/>
						<stop  offset="1" style="stop-color:#AA80F9"/>
					</linearGradient>
					<path class="st39" d="M2042.87,1662.75c-2.98,14.64-11.29,25.31-18.56,23.83c-7.27-1.48-10.75-14.54-7.78-29.18
						c2.98-14.64,11.29-25.31,18.56-23.83C2042.36,1635.05,2045.84,1648.11,2042.87,1662.75z"/>
				</g>
				<g>
					<linearGradient id="SVGID_39_" gradientUnits="userSpaceOnUse" x1="2094.8899" y1="1835.7017" x2="2102.8188" y2="1696.1477">
						<stop  offset="0" style="stop-color:#311944"/>
						<stop  offset="1" style="stop-color:#6B3976"/>
					</linearGradient>
					<path class="st40" d="M2085.12,1721.96c6.43,1.8,20.18,5.13,38.35,4.85c16.71-0.26,47.16-1.02,66.95-22.34
						c3.35-3.61,11.4-12.51,13.76-26.45c0.68-4.01,3.16-18.62-4.97-29.83c-8.77-12.1-19.86-6.41-30.54-17.05
						c-15.2-15.14-3-36.89-15.62-45.45c-11.12-7.55-22.38,8.13-46.87,2.84c-13.32-2.88-13.27-8.22-31.25-12.78
						c-11.94-3.03-26.97-6.85-34.95,0.46c-7.7,7.05-0.62,16.94-8.13,31.04c-7.55,14.18-18.54,11.37-24.09,21.95
						c-10.27,19.6,13.35,56.12,38.67,74.71C2061.99,1715.33,2078.4,1720.08,2085.12,1721.96z"/>
					
						<linearGradient id="SVGID_40_" gradientUnits="userSpaceOnUse" x1="5275.4873" y1="-97.1018" x2="5271.377" y2="234.0424" gradientTransform="matrix(-0.9971 -0.0753 -0.0753 0.9971 7341.7559 2160.1001)">
						<stop  offset="0" style="stop-color:#FFC444"/>
						<stop  offset="0.9964" style="stop-color:#F36F56"/>
					</linearGradient>
					<path class="st41" d="M2123.75,1723.61c0,0-21.1,31.76-63.92,27.31c-38.26-3.98-44.83-83.67-20.65-99.51
						c8.07-5.29,24.36-6.95,37.68-2.96c7.87,2.36,10.57,5.49,23.51,9.12c11.94,3.35,15.29,2.27,18.92,5.22
						c4.54,3.69,7.95,12.42,0.74,35.38c7.23-6.55,15.99-8.81,22.25-5.83c1,0.48,3.66,2.25,5.18,4.82
						C2152.95,1706.5,2144.12,1717.74,2123.75,1723.61z"/>
				</g>
				<g>
					
						<linearGradient id="SVGID_41_" gradientUnits="userSpaceOnUse" x1="745.8444" y1="1547.0448" x2="787.1628" y2="1462.1125" gradientTransform="matrix(-1.0146 -0.2063 -0.2187 1.0756 3188.4087 155.8471)">
						<stop  offset="0" style="stop-color:#AA80F9"/>
						<stop  offset="0.9964" style="stop-color:#6165D7"/>
					</linearGradient>
					<path class="st42" d="M2138.83,1651.39l5.56,1.07l3.36-17.16c5.79-29.59-9.8-57.94-35.49-64.55l-27.5-7.07
						c-14.38-3.7-29.36-0.61-42.2,8.68c-12.83,9.29-21.76,23.51-25.12,40.05l-1.84,9.06l6.52-3.69l0.86-4.25
						c3.01-14.8,10.99-27.53,22.48-35.84c11.49-8.31,24.9-11.07,37.76-7.77l27.5,7.07c22.78,5.85,36.6,30.99,31.46,57.22
						L2138.83,1651.39z"/>
					<g>
						
							<linearGradient id="SVGID_42_" gradientUnits="userSpaceOnUse" x1="774.6991" y1="1441.5031" x2="765.7956" y2="1471.0552" gradientTransform="matrix(-1.0146 -0.2063 -0.2187 1.0756 3188.4087 155.8471)">
							<stop  offset="0" style="stop-color:#AA80F9"/>
							<stop  offset="0.9964" style="stop-color:#6165D7"/>
						</linearGradient>
						<path class="st43" d="M2039.15,1586.76c2.25,0.46,4.71-0.12,6.77-1.83c10.49-8.71,23.53-11.9,35.78-8.75l27.5,7.07
							c9.6,2.47,17.72,8.96,22.84,18.29c2.42,4.41,7.67,5.59,11.71,2.64s5.36-8.92,2.93-13.33c-7.38-13.43-19.07-22.78-32.9-26.34
							l-27.5-7.07c-17.14-4.41-35.38,0.06-50.05,12.24c-3.88,3.22-4.86,9.26-2.19,13.47
							C2035.3,1585.13,2037.15,1586.35,2039.15,1586.76z"/>
						
							<linearGradient id="SVGID_43_" gradientUnits="userSpaceOnUse" x1="774.7411" y1="1441.3636" x2="765.8157" y2="1470.9885" gradientTransform="matrix(-1.0146 -0.2063 -0.2187 1.0756 3188.4087 155.8471)">
							<stop  offset="0" style="stop-color:#AA80F9"/>
							<stop  offset="0.9964" style="stop-color:#6165D7"/>
						</linearGradient>
						<path class="st44" d="M2054.77,1569.91c21.82-2.6,23.19-8.8,33.97-7.1c20.16,3.18,23.88,26.17,43.91,27.31
							c4.69,0.27,8.93-0.74,12.4-2.07c0.56,0.91,1.11,1.83,1.63,2.78c2.42,4.41,1.11,10.38-2.93,13.33s-9.29,1.77-11.71-2.64
							c-5.13-9.32-13.24-15.82-22.84-18.29l-27.5-7.07c-12.25-3.15-25.29,0.04-35.78,8.75c-2.06,1.71-4.51,2.29-6.77,1.83
							c-2-0.41-3.85-1.63-5.1-3.62c-2.42-3.82-1.85-9.13,1.17-12.49C2040.81,1570.9,2047.42,1570.79,2054.77,1569.91z"/>
					</g>
				</g>
				<g>
					<g>
						
							<linearGradient id="SVGID_44_" gradientUnits="userSpaceOnUse" x1="698.8312" y1="1894.1984" x2="748.8015" y2="1894.1984" gradientTransform="matrix(-0.9799 -0.1993 -0.1993 0.9799 3221.3674 -31.299)">
							<stop  offset="0" style="stop-color:#AA80F9"/>
							<stop  offset="0.9964" style="stop-color:#6165D7"/>
						</linearGradient>
						<path class="st45" d="M2110.1,1675.59c-5.54,27.22,0.94,51.52,14.46,54.27s28.97-17.09,34.51-44.31
							c5.54-27.22-0.94-51.52-14.46-54.27C2131.09,1628.53,2115.64,1648.37,2110.1,1675.59z"/>
						
							<linearGradient id="SVGID_45_" gradientUnits="userSpaceOnUse" x1="703.6556" y1="1903.0699" x2="663.5446" y2="1926.4072" gradientTransform="matrix(-0.9799 -0.1993 -0.1993 0.9799 3221.3674 -31.299)">
							<stop  offset="0" style="stop-color:#AA80F9"/>
							<stop  offset="0.9964" style="stop-color:#6165D7"/>
						</linearGradient>
						<path class="st46" d="M2114.92,1676.57c-5.54,27.22,0.94,51.52,14.46,54.27c13.52,2.75,28.97-17.09,34.51-44.31
							c5.54-27.22-0.94-51.52-14.46-54.27C2135.9,1629.51,2120.45,1649.35,2114.92,1676.57z"/>
						
							<linearGradient id="SVGID_46_" gradientUnits="userSpaceOnUse" x1="675.149" y1="1894.1981" x2="730.0892" y2="1894.1981" gradientTransform="matrix(-0.9799 -0.1993 -0.1993 0.9799 3221.3674 -31.299)">
							<stop  offset="0" style="stop-color:#AA80F9"/>
							<stop  offset="0.9964" style="stop-color:#6165D7"/>
						</linearGradient>
						<path class="st47" d="M2154.17,1637.66l4.41,0.9c18.15,3.69,28.82,26.53,23.84,51.02l-0.28,1.37
							c-4.98,24.49-23.73,41.35-41.87,37.66l-4.41-0.9c-9.15-1.86-12.47-23.53-7.42-48.4S2145.02,1635.8,2154.17,1637.66z"/>
					</g>
					
						<linearGradient id="SVGID_47_" gradientUnits="userSpaceOnUse" x1="675.1492" y1="1893.4923" x2="708.1874" y2="1893.4923" gradientTransform="matrix(-0.9799 -0.1993 -0.1993 0.9799 3221.3674 -31.299)">
						<stop  offset="0" style="stop-color:#AA80F9"/>
						<stop  offset="0.9964" style="stop-color:#6165D7"/>
					</linearGradient>
					<path class="st48" d="M2150.04,1682.99c-3.65,17.95,0.64,33.98,9.58,35.79c8.94,1.82,19.15-11.26,22.8-29.21
						c3.65-17.95-0.64-33.98-9.58-35.79C2163.9,1651.96,2153.69,1665.04,2150.04,1682.99z"/>
				</g>
			</g>
		</g>
		<g>
			<g>
				
					<linearGradient id="SVGID_48_" gradientUnits="userSpaceOnUse" x1="-1221.9705" y1="2196.4719" x2="-430.94" y2="2196.4719" gradientTransform="matrix(1 0 0 1 2758.0901 0)">
					<stop  offset="0" style="stop-color:#AA80F9"/>
					<stop  offset="0.9964" style="stop-color:#6165D7"/>
				</linearGradient>
				<path class="st49" d="M2327.15,2569.25l-40.87-539.31c-0.65-8.53-7.95-16.49-17.64-19.21l-699.54-196.64
					c-6.26-1.76-18.27-0.04-23.04,2.92c-4.77,2.96-10.17,2.32-9.94,7.82l29.24,498.4c0.49,8.29,7.3,16.15,16.64,19.18l730.12,237.17
					L2327.15,2569.25z"/>
				
					<linearGradient id="SVGID_49_" gradientUnits="userSpaceOnUse" x1="-677.1122" y1="1960.2404" x2="-1085.6036" y2="2580.9871" gradientTransform="matrix(1 0 0 1 2758.0901 0)">
					<stop  offset="0" style="stop-color:#AA80F9"/>
					<stop  offset="0.9964" style="stop-color:#6165D7"/>
				</linearGradient>
				<path class="st50" d="M2312.12,2579.57l-42.35-543.83c-0.66-8.52-7.96-16.46-17.63-19.18l-699.57-196.65
					c-6.26-1.76-12.66-1.07-17.43,1.89c-4.77,2.96-7.4,7.87-7.16,13.37l21.06,493.46c0.36,8.48,7.39,16.57,16.99,19.55
					L2312.12,2579.57z"/>
				
					<linearGradient id="SVGID_50_" gradientUnits="userSpaceOnUse" x1="-1215.4128" y1="2379.6921" x2="-445.9712" y2="2379.6921" gradientTransform="matrix(1 0 0 1 2758.0901 0)">
					<stop  offset="0" style="stop-color:#AA80F9"/>
					<stop  offset="0.9964" style="stop-color:#6165D7"/>
				</linearGradient>
				<path class="st51" d="M2312.12,2579.57l-746.1-231.4c-9.6-2.98-16.63-11.06-16.99-19.55l-6.35-148.82
					c221.48,141.33,500.36,195.9,759.92,277.51L2312.12,2579.57z"/>
				<path class="st26" d="M1940.86,2596.14l26.47,16.44c0,0,125.65-55.72,133.18-59.06c1.2-0.53,6.36-6.96,0-9.61
					c-33.67-14.02-162.15-47.23-162.15-47.23l-66.87,31.76L1940.86,2596.14z"/>
				
					<linearGradient id="SVGID_51_" gradientUnits="userSpaceOnUse" x1="-692.3116" y1="2483.4912" x2="-902.5627" y2="2609.6423" gradientTransform="matrix(1 0 0 1 2758.0901 0)">
					<stop  offset="0" style="stop-color:#AA80F9"/>
					<stop  offset="0.9964" style="stop-color:#6165D7"/>
				</linearGradient>
				<path class="st52" d="M1940.86,2586.52l26.47,16.44c0,0,125.65-55.72,133.18-59.06c7.52-3.34-162.15-56.84-162.15-56.84
					l-66.87,31.76L1940.86,2586.52z"/>
				<path class="st26" d="M1810.19,2170.14c0,0-63.52,339.9-70.21,358.85c-6.17,17.49,173.74,74.22,216.76,84.98
					c3.58,0.9,8.91-0.67,10.59-1.39c12.26,1.12-44.86-410.39-44.86-410.39l-4.18-0.84L1810.19,2170.14z"/>
				
					<linearGradient id="SVGID_52_" gradientUnits="userSpaceOnUse" x1="-835.0783" y1="2225.8193" x2="-987.2611" y2="2866.5898" gradientTransform="matrix(1 0 0 1 2758.0901 0)">
					<stop  offset="0" style="stop-color:#AA80F9"/>
					<stop  offset="0.9964" style="stop-color:#6165D7"/>
				</linearGradient>
				<path class="st53" d="M1810.19,2170.14c0,0-74.67,341.02-81.35,359.96c-6.69,18.94,208.4,80.24,227.35,83.58
					c12.26,1.11-37.89-412.34-37.89-412.34L1810.19,2170.14z"/>
			</g>
		</g>
	</g>
	<g>
		<g>
			<path class="st54" d="M1436.44,1663.4c-28.81,0.83-56.9-6.43-81.24-21.01c-74.15-44.45-183.71-117.85-282.28-213.94
				c-125.08-121.93-196.94-245.87-212.66-367.58l-0.25-1.91l-3.05-519.32c0-102.63,66.94-185.94,192.62-240.69
				c103.84-45.23,241.47-67.64,386.86-63.43c143.7,4.16,276.68,33.81,375.1,83.21c116.99,58.73,178.38,141.27,178.38,239.12
				l-2.78,496.21l-0.23,1.82c-14.37,116.55-80.49,237.01-197.35,358.84c-93.74,97.71-199.66,175.14-272.41,223.12
				C1493.08,1653.73,1465.18,1662.57,1436.44,1663.4z"/>
			<path class="st55" d="M1464.96,1663.4c-28.43,0.83-56.15-6.43-80.17-21.01c-73.17-44.45-181.29-117.85-278.55-213.94
				c-123.42-121.93-194.34-245.87-209.85-367.58l-0.24-1.91l-3.01-519.32c0-102.63,66.06-185.94,190.08-240.69
				c102.47-45.23,238.28-67.64,381.75-63.43c141.8,4.16,273.02,33.81,370.14,83.21c115.45,58.73,176.03,141.27,176.03,239.12
				l-2.75,496.21l-0.22,1.82c-14.18,116.55-79.42,237.01-194.75,358.84c-92.5,97.71-197.02,175.14-268.81,223.12
				C1520.85,1653.73,1493.32,1662.57,1464.96,1663.4z"/>
			<path class="st55" d="M927.42,540.02l3.03,516.69c34.01,263.63,343.84,477.07,478.77,558.17c38.66,23.23,88.08,21.85,126.46-3.4
				c132.12-86.94,424.98-305.81,456.27-559.28l2.78-494.84C1994.73,190.22,927.42,156.66,927.42,540.02z"/>
			<path class="st26" d="M1472.61,1535.24c-2.47,0.06-6.22-0.35-10-2.65c-55.56-33.65-163.26-104.12-256.96-196.15
				c-101.21-99.41-159.58-196.07-172.96-286.85l-2.97-508.14c0.12-48.76,38.72-90.48,114.37-123.87
				c84.45-37.27,204.39-56.83,328.52-53.88c122.89,2.92,239.33,27.66,319.99,67.69c71.35,35.41,107.43,77.15,107.54,124.21
				l-2.77,490.54c-12.49,87.85-67.28,182.55-163.47,282.1c-90.44,93.6-196.09,167.8-251.31,203.88
				C1478.83,1534.59,1475.09,1535.18,1472.61,1535.24z"/>
			<path class="st55" d="M1459.94,1500.5c-56.11-34.56-155.89-101.29-242.94-186.96c-95.11-93.6-150.15-183.43-163.09-266.54
				l-2.95-505.19c0.09-34.86,32.13-66.84,95-94.67c80-35.43,194.63-54.09,313.98-51.41c118.2,2.65,229.61,26,306.18,63.88
				c59.49,29.43,89.58,61.54,89.67,95.54l-2.76,488.74c-12.14,80.64-64.06,168.83-154.84,262.61
				C1613.89,1393.59,1515.79,1463.6,1459.94,1500.5z"/>
		</g>
	</g>
	<g>
		<linearGradient id="SVGID_53_" gradientUnits="userSpaceOnUse" x1="1039.674" y1="1012.1029" x2="1845.0159" y2="1012.1029">
			<stop  offset="0" style="stop-color:#FCB148"/>
			<stop  offset="0.0521" style="stop-color:#FDBA46"/>
			<stop  offset="0.1424" style="stop-color:#FFC244"/>
			<stop  offset="0.3183" style="stop-color:#FFC444"/>
			<stop  offset="0.4849" style="stop-color:#FDB946"/>
			<stop  offset="0.7754" style="stop-color:#F99C4D"/>
			<stop  offset="0.8658" style="stop-color:#F8924F"/>
			<stop  offset="1" style="stop-color:#F8924F"/>
		</linearGradient>
		<path class="st56" d="M1845.02,727.09L1273.3,1298.8c-4.98,4.98-10.72,9.1-17.06,12.26l-205.81,102.9
			c-2.89,1.45-6.33,0.91-8.6-1.36c-2.26-2.26-2.81-5.7-1.36-8.6l102.9-205.81c3.17-6.34,7.28-12.08,12.26-17.06l571.72-571.72
			L1845.02,727.09z"/>
		<linearGradient id="SVGID_54_" gradientUnits="userSpaceOnUse" x1="1041.8352" y1="1042.0419" x2="1845.0159" y2="1042.0419">
			<stop  offset="0" style="stop-color:#FCB148"/>
			<stop  offset="0.0521" style="stop-color:#FDBA46"/>
			<stop  offset="0.1424" style="stop-color:#FFC244"/>
			<stop  offset="0.3183" style="stop-color:#FFC444"/>
			<stop  offset="0.4849" style="stop-color:#FDB946"/>
			<stop  offset="0.7754" style="stop-color:#F99C4D"/>
			<stop  offset="0.8658" style="stop-color:#F8924F"/>
			<stop  offset="1" style="stop-color:#F8924F"/>
		</linearGradient>
		<path class="st57" d="M1845.02,727.09L1273.3,1298.8c-4.98,4.98-9.59,10.23-15.93,13.39L1051,1414.53
			c-2.89,1.45-4.64,2.6-9.16-1.92l744.35-744.35L1845.02,727.09z"/>
		
			<linearGradient id="SVGID_55_" gradientUnits="userSpaceOnUse" x1="2767.5688" y1="1532.1794" x2="2940.3604" y2="1532.1794" gradientTransform="matrix(0.7071 0.7071 -0.7071 0.7071 1048.4008 -2630.0298)">
			<stop  offset="0" style="stop-color:#AB316D"/>
			<stop  offset="1" style="stop-color:#792D3D"/>
		</linearGradient>
		<circle class="st58" cx="1983.04" cy="471.41" r="86.39"/>
		
			<linearGradient id="SVGID_56_" gradientUnits="userSpaceOnUse" x1="2815.5664" y1="1701.771" x2="2885.9631" y2="1701.771" gradientTransform="matrix(0.7071 0.7071 -0.7071 0.7071 1048.4008 -2630.0298)">
			<stop  offset="0" style="stop-color:#AB316D"/>
			<stop  offset="1" style="stop-color:#792D3D"/>
		</linearGradient>
		<path class="st59" d="M1823.52,676.18c-13.12,13.12-34.39,13.12-47.51,0l-2.26-2.26c-13.12-13.12-13.12-34.39,0-47.51
			l124.44-124.44c13.12-13.12,34.39-13.12,47.51,0l2.26,2.26c13.12,13.12,13.12,34.39,0,47.51L1823.52,676.18z"/>
		
			<linearGradient id="SVGID_57_" gradientUnits="userSpaceOnUse" x1="2581.4275" y1="1802.2751" x2="3126.5017" y2="1802.2751" gradientTransform="matrix(0.7071 0.7071 -0.7071 0.7071 1048.4008 -2630.0298)">
			<stop  offset="0" style="stop-color:#AB316D"/>
			<stop  offset="1" style="stop-color:#792D3D"/>
		</linearGradient>
		<path class="st60" d="M1960.15,824.63c21.56,34.67,22.13,49.95,1.56,33.54c-132.8-108.36-257.08-232.63-365.45-365.45
			c-16.4-20.56-1.13-19.98,33.54,1.56l0,0c34.66,21.54,71.12,44.9,81.14,52.43c71.51,58.34,138.43,125.27,196.78,196.78
			C1915.28,753.56,1938.55,789.9,1960.15,824.63L1960.15,824.63z"/>
	</g>
	<g>
		
			<linearGradient id="SVGID_58_" gradientUnits="userSpaceOnUse" x1="1253.6102" y1="-831.3859" x2="1338.8752" y2="-831.3859" gradientTransform="matrix(0.6414 -0.7672 0.7672 0.6414 1272.7728 2412.646)">
			<stop  offset="0" style="stop-color:#AB316D"/>
			<stop  offset="1" style="stop-color:#792D3D"/>
		</linearGradient>
		<polygon class="st61" points="1846.8,1147.42 1792.13,1212.81 1085.89,622.41 1140.55,557.02 		"/>
		
			<linearGradient id="SVGID_59_" gradientUnits="userSpaceOnUse" x1="1357.2487" y1="-846.3125" x2="1411.2325" y2="-1289.55" gradientTransform="matrix(0.6414 -0.7672 0.7672 0.6414 1272.7728 2412.646)">
			<stop  offset="0" style="stop-color:#AB316D"/>
			<stop  offset="1" style="stop-color:#792D3D"/>
		</linearGradient>
		<path class="st62" d="M1877.41,1113.76c-5.62-4.7-13.98-3.95-18.67,1.67l-95.97,114.8c-4.7,5.62-3.95,13.98,1.67,18.67
			l36.33,30.37c5.62,4.7,13.98,3.95,18.67-1.67l95.97-114.8c4.7-5.62,3.95-13.98-1.67-18.67L1877.41,1113.76z"/>
		<g>
			<linearGradient id="SVGID_60_" gradientUnits="userSpaceOnUse" x1="779.6802" y1="777.4897" x2="1321.0872" y2="777.4897">
				<stop  offset="0" style="stop-color:#FCB148"/>
				<stop  offset="0.0521" style="stop-color:#FDBA46"/>
				<stop  offset="0.1424" style="stop-color:#FFC244"/>
				<stop  offset="0.3183" style="stop-color:#FFC444"/>
				<stop  offset="0.4849" style="stop-color:#FDB946"/>
				<stop  offset="0.7754" style="stop-color:#F99C4D"/>
				<stop  offset="0.8658" style="stop-color:#F8924F"/>
				<stop  offset="1" style="stop-color:#F8924F"/>
			</linearGradient>
			<path class="st63" d="M1184.73,719.86l-108.9-91.04l-29.8,36.35c-13.14,15.98-34.03,23.96-54.38,20.58
				c-43.32-7.18-117.66-27.05-162.42-79.2c-14.54-16.89-25.85-37.39-32.03-61.89c-0.63-2.52-2.86-4.29-5.44-4.21
				c-2.58,0.07-4.68,1.88-5.19,4.34c-12.49,65.17-26.39,238.61,137.36,375.5c161.48,134.99,330.57,92.28,393.54,68.87
				c2.42-0.86,3.94-3.38,3.55-5.93c-0.39-2.55-2.39-4.59-4.95-4.8c-25.46-1.88-47.67-9.78-66.98-21.41
				c-58.27-35.01-90.18-104.13-104.74-145.18c-6.94-19.43-3.56-40.39,9.84-56.15L1184.73,719.86z"/>
			<linearGradient id="SVGID_61_" gradientUnits="userSpaceOnUse" x1="829.2364" y1="782.2339" x2="1249.0465" y2="782.2339">
				<stop  offset="0" style="stop-color:#FCB148"/>
				<stop  offset="0.0521" style="stop-color:#FDBA46"/>
				<stop  offset="0.1424" style="stop-color:#FFC244"/>
				<stop  offset="0.3183" style="stop-color:#FFC444"/>
				<stop  offset="0.4849" style="stop-color:#FDB946"/>
				<stop  offset="0.7754" style="stop-color:#F99C4D"/>
				<stop  offset="0.8658" style="stop-color:#F8924F"/>
				<stop  offset="1" style="stop-color:#F8924F"/>
			</linearGradient>
			<path class="st64" d="M1184.73,719.86l-108.9-91.04l-29.8,36.35c-13.14,15.98-34.03,23.96-54.38,20.58
				c-43.32-7.18-117.66-27.05-162.42-79.2c8.51,77.62,42.58,174.09,141.98,257.18c98.35,82.22,199.58,98.44,277.83,93.35
				c-58.27-35.01-90.16-104.16-104.71-145.22c-6.94-19.43-3.55-40.41,9.85-56.17L1184.73,719.86z"/>
			<linearGradient id="SVGID_62_" gradientUnits="userSpaceOnUse" x1="1011.2111" y1="482.8586" x2="1552.4135" y2="482.8586">
				<stop  offset="0" style="stop-color:#FCB148"/>
				<stop  offset="0.0521" style="stop-color:#FDBA46"/>
				<stop  offset="0.1424" style="stop-color:#FFC244"/>
				<stop  offset="0.3183" style="stop-color:#FFC444"/>
				<stop  offset="0.4849" style="stop-color:#FDB946"/>
				<stop  offset="0.7754" style="stop-color:#F99C4D"/>
				<stop  offset="0.8658" style="stop-color:#F8924F"/>
				<stop  offset="1" style="stop-color:#F8924F"/>
			</linearGradient>
			<path class="st65" d="M1253.98,637.03l-108.9-91.04l32.32-37.95c13.4-15.76,18.46-38.83,11.52-58.26
				c-14.74-41.36-47.02-111.55-106.29-146.35c-19.2-11.32-41.15-19.08-66.36-20.82c-2.59-0.17-4.61-2.19-5-4.74
				c-0.39-2.55,1.08-5.01,3.41-5.94c61.93-23.85,230.18-68.3,393.93,68.58c161.48,134.99,149.43,308.96,137.55,375.08
				c-0.42,2.54-2.62,4.47-5.2,4.53c-2.58,0.07-4.93-1.54-5.6-4.02c-6.36-24.73-18.08-45.18-32.94-62.12
				c-44.79-51.14-118.46-70.3-161.45-77.35c-20.35-3.39-42.21,5.84-55.34,21.81L1253.98,637.03z"/>
			<linearGradient id="SVGID_63_" gradientUnits="userSpaceOnUse" x1="1082.6272" y1="478.2724" x2="1502.3695" y2="478.2724">
				<stop  offset="0" style="stop-color:#FCB148"/>
				<stop  offset="0.0521" style="stop-color:#FDBA46"/>
				<stop  offset="0.1424" style="stop-color:#FFC244"/>
				<stop  offset="0.3183" style="stop-color:#FFC444"/>
				<stop  offset="0.4849" style="stop-color:#FDB946"/>
				<stop  offset="0.7754" style="stop-color:#F99C4D"/>
				<stop  offset="0.8658" style="stop-color:#F8924F"/>
				<stop  offset="1" style="stop-color:#F8924F"/>
			</linearGradient>
			<path class="st66" d="M1253.98,637.03l-108.9-91.04l32.32-37.95c13.4-15.76,18.46-38.83,11.52-58.26
				c-14.74-41.36-47.02-111.55-106.29-146.35c77.9-5.39,179.11,10.77,278.51,93.87c98.35,82.22,132.38,178.84,141.24,256.75
				c-44.79-51.14-118.43-70.33-161.42-77.38c-20.35-3.39-42.19,5.82-55.33,21.8L1253.98,637.03z"/>
		</g>
		
			<linearGradient id="SVGID_64_" gradientUnits="userSpaceOnUse" x1="1251.5125" y1="-859.1507" x2="1305.495" y2="-1302.3776" gradientTransform="matrix(0.6414 -0.7672 0.7672 0.6414 1272.7728 2412.646)">
			<stop  offset="0" style="stop-color:#AB316D"/>
			<stop  offset="1" style="stop-color:#792D3D"/>
		</linearGradient>
		<polygon class="st67" points="1267.05,618.33 1168.65,736.04 1059.66,644.93 1158.06,527.22 		"/>
	</g>
	<g>
		
			<linearGradient id="SVGID_65_" gradientUnits="userSpaceOnUse" x1="4298.877" y1="1238.5183" x2="4846.0312" y2="1815.3284" gradientTransform="matrix(-1 0 0 1 5032.6938 0)">
			<stop  offset="0" style="stop-color:#AA80F9"/>
			<stop  offset="0.9964" style="stop-color:#6165D7"/>
		</linearGradient>
		<polygon class="st68" points="376.25,1478.02 810.11,1403.82 810.1,1315.14 376.25,1369.74 		"/>
		<polygon class="st26" points="796.96,1389.74 796.95,1333.13 395.57,1386.96 395.57,1455.07 		"/>
		
			<linearGradient id="SVGID_66_" gradientUnits="userSpaceOnUse" x1="4603.9502" y1="1337.2039" x2="4899.0645" y2="1648.3135" gradientTransform="matrix(-1 0 0 1 5032.6938 0)">
			<stop  offset="0" style="stop-color:#AA80F9"/>
			<stop  offset="0.9964" style="stop-color:#6165D7"/>
		</linearGradient>
		<polygon class="st69" points="267.67,1496.53 475.81,1460.94 407.01,1318.89 267.67,1333.65 		"/>
		<polygon class="st26" points="447.16,1446.62 394.95,1339.82 288.77,1351.95 288.77,1472.4 		"/>
		<polygon class="st26" points="762.84,1386.57 787.2,1382.71 787.2,1343.05 762.84,1346.43 		"/>
		<polygon class="st26" points="728.86,1391.96 754.04,1387.97 754.04,1347.64 728.85,1351.13 		"/>
		<polygon class="st26" points="693.7,1397.52 719.76,1393.4 719.76,1352.39 693.7,1356 		"/>
		<polygon class="st26" points="657.32,1403.29 684.29,1399.02 684.29,1357.3 657.32,1361.03 		"/>
		
			<linearGradient id="SVGID_67_" gradientUnits="userSpaceOnUse" x1="4478.1797" y1="1309.6271" x2="4284.9937" y2="1495.717" gradientTransform="matrix(-1 0 0 1 5032.6938 0)">
			<stop  offset="0" style="stop-color:#AA80F9"/>
			<stop  offset="0.9964" style="stop-color:#6165D7"/>
		</linearGradient>
		<polygon class="st70" points="619.65,1409.26 647.58,1404.83 647.58,1362.38 619.65,1366.25 		"/>
		
			<linearGradient id="SVGID_68_" gradientUnits="userSpaceOnUse" x1="4498.228" y1="1333.1609" x2="4300.2593" y2="1523.8574" gradientTransform="matrix(-1 0 0 1 5032.6938 0)">
			<stop  offset="0" style="stop-color:#AA80F9"/>
			<stop  offset="0.9964" style="stop-color:#6165D7"/>
		</linearGradient>
		<polygon class="st71" points="580.6,1415.44 609.55,1410.86 609.55,1367.65 580.6,1371.65 		"/>
		
			<linearGradient id="SVGID_69_" gradientUnits="userSpaceOnUse" x1="4518.7471" y1="1357.8121" x2="4315.7715" y2="1553.3322" gradientTransform="matrix(-1 0 0 1 5032.6938 0)">
			<stop  offset="0" style="stop-color:#AA80F9"/>
			<stop  offset="0.9964" style="stop-color:#6165D7"/>
		</linearGradient>
		<polygon class="st72" points="540.12,1421.86 570.14,1417.1 570.13,1373.1 540.12,1377.26 		"/>
		
			<linearGradient id="SVGID_70_" gradientUnits="userSpaceOnUse" x1="4539.7495" y1="1383.6591" x2="4331.5283" y2="1584.2317" gradientTransform="matrix(-1 0 0 1 5032.6938 0)">
			<stop  offset="0" style="stop-color:#AA80F9"/>
			<stop  offset="0.9964" style="stop-color:#6165D7"/>
		</linearGradient>
		<polygon class="st73" points="498.11,1428.51 529.26,1423.58 529.26,1378.76 498.11,1383.08 		"/>
	</g>
	<g>
		
			<linearGradient id="SVGID_71_" gradientUnits="userSpaceOnUse" x1="2622.2407" y1="1238.5183" x2="3169.395" y2="1815.3284" gradientTransform="matrix(1 0 0 1 -505.0532 0)">
			<stop  offset="0" style="stop-color:#FF9085"/>
			<stop  offset="1" style="stop-color:#FB6FBB"/>
		</linearGradient>
		<polygon class="st74" points="2474.75,1478.02 2040.9,1403.82 2040.9,1315.14 2474.76,1369.74 		"/>
		<polygon class="st26" points="2054.05,1389.74 2054.05,1333.13 2455.43,1386.96 2455.43,1455.07 		"/>
		
			<linearGradient id="SVGID_72_" gradientUnits="userSpaceOnUse" x1="2927.3142" y1="1337.2039" x2="3222.4285" y2="1648.3134" gradientTransform="matrix(1 0 0 1 -505.0532 0)">
			<stop  offset="0" style="stop-color:#FF9085"/>
			<stop  offset="1" style="stop-color:#FB6FBB"/>
		</linearGradient>
		<polygon class="st75" points="2583.33,1496.53 2375.19,1460.94 2444,1318.89 2583.34,1333.65 		"/>
		<polygon class="st26" points="2403.84,1446.62 2456.06,1339.82 2562.24,1351.95 2562.23,1472.4 		"/>
		<polygon class="st26" points="2088.17,1386.57 2063.81,1382.71 2063.81,1343.05 2088.17,1346.43 		"/>
		<polygon class="st26" points="2122.15,1391.96 2096.96,1387.97 2096.97,1347.64 2122.15,1351.13 		"/>
		<polygon class="st26" points="2157.3,1397.52 2131.25,1393.4 2131.25,1352.39 2157.3,1356 		"/>
		<polygon class="st26" points="2193.68,1403.29 2166.71,1399.02 2166.71,1357.3 2193.68,1361.03 		"/>
		<polygon class="st26" points="2231.36,1409.26 2203.43,1404.83 2203.43,1362.38 2231.36,1366.25 		"/>
		<polygon class="st26" points="2270.4,1415.44 2241.45,1410.86 2241.46,1367.65 2270.4,1371.65 		"/>
		
			<linearGradient id="SVGID_73_" gradientUnits="userSpaceOnUse" x1="2842.1113" y1="1357.8121" x2="2639.135" y2="1553.3324" gradientTransform="matrix(1 0 0 1 -505.0532 0)">
			<stop  offset="0" style="stop-color:#FF9085"/>
			<stop  offset="1" style="stop-color:#FB6FBB"/>
		</linearGradient>
		<polygon class="st76" points="2310.89,1421.86 2280.87,1417.1 2280.87,1373.1 2310.89,1377.26 		"/>
		
			<linearGradient id="SVGID_74_" gradientUnits="userSpaceOnUse" x1="2863.1135" y1="1383.6591" x2="2654.8921" y2="1584.2317" gradientTransform="matrix(1 0 0 1 -505.0532 0)">
			<stop  offset="0" style="stop-color:#FF9085"/>
			<stop  offset="1" style="stop-color:#FB6FBB"/>
		</linearGradient>
		<polygon class="st77" points="2352.89,1428.51 2321.74,1423.58 2321.75,1378.76 2352.9,1383.08 		"/>
	</g>
	<linearGradient id="SVGID_75_" gradientUnits="userSpaceOnUse" x1="406.4605" y1="615.8563" x2="-286.719" y2="1283.573">
		<stop  offset="0" style="stop-color:#FCB148"/>
		<stop  offset="0.0521" style="stop-color:#FDBA46"/>
		<stop  offset="0.1424" style="stop-color:#FFC244"/>
		<stop  offset="0.3183" style="stop-color:#FFC444"/>
		<stop  offset="0.4849" style="stop-color:#FDB946"/>
		<stop  offset="0.7754" style="stop-color:#F99C4D"/>
		<stop  offset="0.8658" style="stop-color:#F8924F"/>
		<stop  offset="1" style="stop-color:#F8924F"/>
	</linearGradient>
	<circle class="st78" cx="266.34" cy="750.83" r="84.11"/>
	<linearGradient id="SVGID_76_" gradientUnits="userSpaceOnUse" x1="2330.6746" y1="965.1458" x2="1799.6396" y2="1476.6738">
		<stop  offset="0" style="stop-color:#FCB148"/>
		<stop  offset="0.0521" style="stop-color:#FDBA46"/>
		<stop  offset="0.1424" style="stop-color:#FFC244"/>
		<stop  offset="0.3183" style="stop-color:#FFC444"/>
		<stop  offset="0.4849" style="stop-color:#FDB946"/>
		<stop  offset="0.7754" style="stop-color:#F99C4D"/>
		<stop  offset="0.8658" style="stop-color:#F8924F"/>
		<stop  offset="1" style="stop-color:#F8924F"/>
	</linearGradient>
	<circle class="st79" cx="2223.33" cy="1068.55" r="64.44"/>
	<g>
		<linearGradient id="SVGID_77_" gradientUnits="userSpaceOnUse" x1="698.5187" y1="418.3182" x2="128.9209" y2="966.9927">
			<stop  offset="0" style="stop-color:#FF9085"/>
			<stop  offset="1" style="stop-color:#FB6FBB"/>
		</linearGradient>
		<rect x="559.55" y="454.34" class="st80" width="47.66" height="149.78"/>
		
			<linearGradient id="SVGID_78_" gradientUnits="userSpaceOnUse" x1="3538.208" y1="841.8769" x2="2958.5081" y2="1400.2823" gradientTransform="matrix(0 1 -1 0 1538.1332 -2893.498)">
			<stop  offset="0" style="stop-color:#FF9085"/>
			<stop  offset="1" style="stop-color:#FB6FBB"/>
		</linearGradient>
		<rect x="508.49" y="502" class="st81" width="149.78" height="51.06"/>
	</g>
	<g>
		<linearGradient id="SVGID_79_" gradientUnits="userSpaceOnUse" x1="2602.5679" y1="660.0432" x2="1875.7883" y2="1360.1256">
			<stop  offset="0" style="stop-color:#FF9085"/>
			<stop  offset="1" style="stop-color:#FB6FBB"/>
		</linearGradient>
		<rect x="2425.02" y="706.24" class="st82" width="61.27" height="190.63"/>
		
			<linearGradient id="SVGID_80_" gradientUnits="userSpaceOnUse" x1="3842.3123" y1="-1061.0051" x2="3105.4307" y2="-351.1919" gradientTransform="matrix(0 1 -1 0 1538.1332 -2893.498)">
			<stop  offset="0" style="stop-color:#FF9085"/>
			<stop  offset="1" style="stop-color:#FB6FBB"/>
		</linearGradient>
		<rect x="2360.34" y="767.52" class="st83" width="190.63" height="64.68"/>
	</g>
	<linearGradient id="SVGID_81_" gradientUnits="userSpaceOnUse" x1="553.8448" y1="919.9354" x2="84.4936" y2="1372.0458">
		<stop  offset="0" style="stop-color:#AA80F9"/>
		<stop  offset="0.9964" style="stop-color:#6165D7"/>
	</linearGradient>
	<polygon class="st84" points="400.81,1033.04 460.08,930.38 519.35,1033.04 	"/>
	<linearGradient id="SVGID_82_" gradientUnits="userSpaceOnUse" x1="2331.8164" y1="501.2264" x2="1862.4652" y2="953.3367">
		<stop  offset="0" style="stop-color:#AA80F9"/>
		<stop  offset="0.9964" style="stop-color:#6165D7"/>
	</linearGradient>
	<polygon class="st85" points="2178.78,614.33 2238.05,511.67 2297.32,614.33 	"/>
</g>
</svg>
