<svg version="1.1" xmlns="http://www.w3.org/2000/svg" xmlns:xlink="http://www.w3.org/1999/xlink" x="0px" y="0px"
	 viewBox="0 0 500 500" style="enable-background:new 0 0 500 500;" xml:space="preserve">
<style type="text/css">
	.st0{display:none;}
	.st1{display:inline;fill:#FFFFFF;}
	.st2{fill:#BAC3D8;}
	.st3{display:none;fill:#261655;}
	.st4{fill:#A5A5A5;}
	.st5{opacity:0.3;fill:#261655;}
	.st6{fill:#222C2B;}
	.st7{fill:#383D43;}
	.st8{fill:#DD901F;}
	.st9{fill:#C1730C;}
	.st10{fill:#F4C6BA;}
	.st11{opacity:0.5;fill:#F4976E;}
	.st12{fill:#494E52;}
	.st13{fill:#EF9C9C;}
	.st14{fill:#000516;}
	.st15{fill:#F32C6D;}
	.st16{fill:#FF739F;}
	.st17{fill:#FFF9FE;}
	.st18{fill:#6C341E;}
	.st19{fill:#FFFFFF;}
	.st20{fill:#656C70;}
	.st21{opacity:0.5;fill:url(#SVGID_1_);}
	.st22{font-family:'Montserrat-Black';}
	.st23{font-size:12.7875px;}
	.st24{font-size:17.6953px;}
</style>
<g id="BACKGROUND" class="st0">
	<rect class="st1" width="500" height="500"/>
</g>
<g id="OBJECTS">
	<g>
		<path class="st2" d="M297.31,62.27C140.03,33.17,23.64,136.61,13.57,255.21c-19.35,228.03,183.8-29.12,255.3,133.95
			C349.47,572.98,710.66,138.75,297.31,62.27z"/>
		<path class="st2" d="M477.71,378.56c4.64,6.6-0.55,18.25-11.61,26.04c-11.06,7.79-23.79,8.75-28.43,2.16s0.55-18.25,11.61-26.04
			C460.34,372.93,473.07,371.97,477.71,378.56z"/>
		
			<ellipse transform="matrix(0.8176 -0.5758 0.5758 0.8176 -31.7986 56.4777)" class="st2" cx="73.25" cy="78.43" rx="41.05" ry="24.49"/>
	</g>
	<g>
		<rect x="5.16" y="401.64" class="st3" width="491.13" height="98.36"/>
		<path class="st4" d="M496.29,500H5.16l0,0c0.34-12.21,2.59-28.86,11.75-45.14c31.97-56.86,119.49-58.41,237.14-58.92
			c116-0.51,200.99,0.23,231.4,54.72C495.18,468.09,496.74,486.39,496.29,500z"/>
		<polygon class="st5" points="419.59,500 83.67,500 130.82,401.64 371.06,401.64 		"/>
		<ellipse class="st5" cx="82.25" cy="437.92" rx="45.49" ry="5.15"/>
		<path class="st5" d="M74.44,401.64c-10.26,9.85-15.22,19.96-11.71,26.15c5.21,9.19,27.07,6.27,48.83-6.52
			c10.07-5.92,18.34-12.91,23.82-19.63H74.44z"/>
		<path class="st5" d="M406.86,401.64c10.26,9.85,15.22,19.96,11.71,26.15c-5.21,9.19-27.07,6.27-48.83-6.52
			c-10.07-5.92-18.34-12.91-23.82-19.63H406.86z"/>
		<path class="st5" d="M478.06,440.13c0-7.24-77.96-13.12-174.13-13.12c-96.17,0-174.13,5.87-174.13,13.12
			c0,3.05,13.8,5.85,36.94,8.08c-1.43,0.61-2.2,1.24-2.2,1.9c0,4.37,33.92,7.92,75.75,7.92c31.19,0,57.97-1.97,69.58-4.79
			C403.29,453.01,478.06,447.23,478.06,440.13z"/>
	</g>
	<g>
		<path class="st6" d="M359.42,389.62c0,31.31-25.38,56.69-56.69,56.69h-116.1c-31.31,0-56.69-25.38-56.69-56.69l10-229.1
			c0-31.31,25.38-56.69,56.69-56.69l97.1,1c31.31,0,56.69,25.38,56.69,56.69L359.42,389.62z"/>
		<path class="st7" d="M154.79,239.65l-5.53,126.67c0,26.22,21.25,47.47,47.47,47.47h97.21c26.22,0,47.47-21.25,47.47-47.47
			l-5-126.67H154.79z"/>
		<polygon class="st7" points="336.12,232.15 333.93,176.65 157.54,176.65 155.12,232.15 		"/>
		<path class="st7" d="M333.76,172.15c-1.63-24.74-22.2-44.3-47.35-44.3l-81.3-0.84c-25.44,0-46.2,20-47.41,45.14H333.76z"/>
	</g>
	<g>
		<g>
			<g>
				<path class="st8" d="M278.72,227.43c0,0,29.61-2.17,35.15,10.01c5.53,12.18,38.31,107.87,27.98,116.53
					c-22.63,18.95-64.47-100.51-64.47-100.51L278.72,227.43z"/>
				<g>
					<g>
						<g>
							<g>
								<path class="st8" d="M218.6,227.43c0,0-29.61-2.17-35.15,10.01c-5.53,12.18-64.17,109.83-22.16,109.29
									c13.48-0.17,58.66-93.28,58.66-93.28L218.6,227.43z"/>
								<g>
									<g>
										<g>
											<rect x="190.1" y="236.04" class="st8" width="114.9" height="123.56"/>
										</g>
									</g>
								</g>
								<path class="st8" d="M318.88,349.77c13.05,17.68,44.35,40.1,63.4,46.48c0.87-0.7,15.53-10.78,18.94-14.04
									c-9.19-19.55-47.6-52.05-56.64-57.36c-11.53-6.78-24.47,0.1-27.73,6.42C314.89,335.04,316.12,346.02,318.88,349.77z"/>
								<path class="st9" d="M339.66,350.22c-2.76-3.74-3.99-14.72-2.04-18.5c1.24-2.4,3.88-4.88,7.3-6.66
									c-0.11-0.07-0.24-0.15-0.34-0.21c-11.53-6.78-24.47,0.1-27.73,6.42c-1.95,3.77-0.73,14.75,2.04,18.5
									c13.05,17.68,44.35,40.1,63.4,46.48c0.4-0.32,3.77-2.67,7.61-5.41C371.8,381.22,350,364.24,339.66,350.22z"/>
								<path class="st10" d="M382.4,396.14l-0.12,0.11C382.28,396.25,382.17,395.8,382.4,396.14z"/>
								<path class="st10" d="M463.69,416.39c-2.79,0-4.99-1.58-6.56-3.28c1.05,2.04,1.3,3.96-2.1,3.28c-6.67-1.33-10-6-10-6
									s3.33,8-2.67,6c-5.71-1.9-10.22-7.43-10.65-7.96c0.34,0.64,4.38,8.5-2.02,5.3c-6.66-3.34-10-10-10-10l-0.01,0.01
									c-0.29,0.28-4.91,4.76-6.82,5.82c-3.3,1.83-9.78,3.76-15.66,3.08c-4.58-0.51-8.79-2.61-10.84-7.58
									c-2.68-6.52-3.63-8.45-3.96-8.92l18.82-13.93c0,0,3.81-0.48,6.47-4.48c2.67-4,4.67-14,10-11.34
									c5.34,2.67,4,11.34,1.34,14.67c-2.59,3.23-4.54,7.24-4.66,7.49c0.29-0.32,5.17-5.64,10.99-4.99
									c3.37,0.37,4.69,1.75,5.2,2.89c0.23-0.92,1.29-1.89,4.8-1.89c6.67,0,7,5.5,7,5.5s1.17-4.5,4.5-2.5s4.5,6,4.5,6s1.33-5,4-3
									s6.33,12.5,7.67,14.5C464.36,407.06,469.69,416.39,463.69,416.39z"/>
								<path class="st11" d="M419.69,403.73L419.69,403.73c-0.3,0.29-4.92,4.77-6.83,5.83c-3.3,1.83-9.78,3.76-15.66,3.08
									l-1.84-0.58c0,0,11-14,17-15S419.69,403.73,419.69,403.73z"/>
								<path class="st8" d="M165.68,342.38c-13.99,18.08-42.33,39.98-63.42,46.95c-1-0.67-17.34-16.73-21.27-19.88
									c9.61-19.82,45.14-45.59,55.06-51.18c12.67-7.14,27.39-0.66,31.26,5.55C169.63,327.53,168.64,338.55,165.68,342.38z"/>
								<path class="st9" d="M167.32,323.82c-1.68-2.69-5.38-5.43-10.07-7.09c0.49,4.83-0.61,11.54-2.79,14.36
									c-13.99,18.08-42.33,39.98-63.42,46.95c-0.5-0.34-4.95-4.63-9.73-9.19c-0.1,0.2-0.21,0.4-0.31,0.59
									c3.93,3.15,20.27,19.21,21.27,19.88c21.1-6.97,49.43-28.87,63.42-46.95C168.64,338.55,169.63,327.53,167.32,323.82z"/>
								<g>
									<g>
										<path class="st12" d="M35.55,421.89c0,18.64,16.68,17.17,39.05,17.17s41.95,1.47,41.95-17.17
											c0-18.64-18.13-33.75-40.5-33.75S35.55,403.25,35.55,421.89z"/>
										<path class="st7" d="M116.29,418.14c0.16,1.23,0.25,2.48,0.25,3.75c0,18.64-19.58,17.17-41.95,17.17
											s-39.05,1.47-39.05-17.17c0-1.27,0.09-2.52,0.25-3.75H116.29z"/>
										<path class="st6" d="M37.14,430.14c4.65,9.89,19.14,8.92,37.46,8.92c18.32,0,34.75,0.97,40.1-8.92H37.14z"/>
									</g>
									<path class="st10" d="M96.72,372.5c-0.34-0.33-0.66-0.68-0.98-1.02c-2.54-1.54-5.71-3.45-9.64-5.42c-12-6-20,0-28.05,2.58
										c-5.15,1.66-9.19,1.71-12,3c-3.97,1.83-8.45,10.92-8.45,15.42s-7.5,22-1.5,22c5.79,0,9.68-15.31,9.94-16.36
										c-0.23,1.26-3.86,21.88-1.44,22.36c9.54,1.91,12.94-18.9,13.4-22.03c-0.3,2.78-1.83,19.53,5.1,19.03
										c6.9-0.49,6.95-18.89,6.95-19.41c0.06,0.54,2.18,18.34,10.5,13.49c0.56-0.33,1.3-3.71,1.96-7.47
										c0.86-4.98,1.59-10.61,1.59-10.61s3.44,0.94,6.75,2.01C92.1,384.04,93.97,378.32,96.72,372.5z"/>
									<path class="st10" d="M108.53,388.21c-4.08-2.54-4.67-6.34-4.67-6.34l-6.81-9.57c-3.67-5.16-10.46-7.21-16.28-4.69
										c-0.06,0.03-0.13,0.06-0.19,0.08c-4.91,2.2-6.88,6.47-7.26,11.06c-0.17,2.04-0.03,4.14,0.31,6.15
										c-0.04-0.23,6.63,1.29,7.24,1.57c2.18,1,4.42,1.77,6.68,2.62c3.7,1.39,7.21,3.24,10.53,5.38c3,1.93,5.64,4.44,8.9,5.96
										c4.09,1.9,10.91,2.31,13.17-2.56C122.66,392.46,112.6,390.76,108.53,388.21z"/>
								</g>
								<path class="st9" d="M286.67,229.89c0,15.38-18.28,27.85-40.83,27.85c-22.55,0-40.82-12.47-40.82-27.85
									c0-15.37,18.27-27.85,40.82-27.85C268.4,202.04,286.67,214.52,286.67,229.89z"/>
								<path class="st8" d="M286.67,218.18c0,15.38-16,40.41-38.54,40.41c-22.55,0-43.11-25.03-43.11-40.41
									c0-15.38,18.27-27.85,40.82-27.85C268.4,190.33,286.67,202.81,286.67,218.18z"/>
								<path class="st9" d="M268.66,219.74c0,7.93-8.94,20.82-21.54,20.82c-12.6,0-24.08-12.9-24.08-20.82
									c0-7.92,10.21-14.35,22.81-14.35C258.45,205.39,268.66,211.82,268.66,219.74z"/>
							</g>
						</g>
						<g>
							<g>
								<path class="st10" d="M257.32,218.82c0.34,4.93,2.58,12.04,2.58,12.04c-0.72,0.8-5.68,9.12-13.72,8.95
									c-7.7-0.17-15.28-6.64-13.59-7.9c0.6-0.45,1.88-5.47,2.13-6.49c0.51-2.14,0.92-4.57,1.1-7.25
									c0.4-6.14-0.57-11.32-1.65-15.08c-0.32-1.09-0.66-2.06-0.97-2.9l26.83,0.12c-0.44,1.19-0.92,2.62-1.35,4.27
									c-0.76,2.9-1.41,6.5-1.46,10.61C257.21,216.35,257.24,217.57,257.32,218.82z"/>
								<path class="st13" d="M258.68,204.57c-0.77,2.91-1.59,8.8-1.25,15.42c-6.24,3.91-14.56,3.38-22.72,5.42
									c0.52-2.15,0.93-4.58,1.1-7.26c0.41-6.13-0.56-11.31-1.66-15.07c0.74-1.19,1.39-2.18,1.86-2.88
									c0.49-0.73,0.78-1.15,0.78-1.15l4.66,1.18L258.68,204.57z"/>
								<g>
									<g>
										<path class="st10" d="M248.88,217.45c-49.21-0.27-62-82.12-44.54-96.46c15.43-12.67,71.65-12.42,86.96,0.38
											C308.63,135.86,285.92,217.65,248.88,217.45z"/>
										<path class="st14" d="M231.58,162.1c0,3.48-1.8,6.3-4.03,6.3c-2.22,0-4.03-2.82-4.03-6.3c0-3.48,1.8-6.3,4.03-6.3
											C229.78,155.8,231.58,158.62,231.58,162.1z"/>
										<path class="st14" d="M277.37,145.13c0,0-9.18-7.04-21.8,9.71L277.37,145.13z"/>
										<path class="st14" d="M260.82,162.1c0,3.48,1.8,6.3,4.03,6.3s4.03-2.82,4.03-6.3c0-3.48-1.8-6.3-4.03-6.3
											S260.82,158.62,260.82,162.1z"/>
										<g>
											<g>
												<path class="st15" d="M267.66,200.63c-0.12,0.12-0.22,0.26-0.34,0.39c-2.66,3.13-12.48,7.38-22.86,6.82
													c-4.05-0.22-7.65-1.11-10.3-2.57c-4.13-2.29-5.94-5.95-3.46-10.53c1.46-2.7,3.24-3.99,5.18-4.54
													c2.05-0.59,4.3-0.34,6.58-0.08c0.52,0.06,1.04,0.12,1.55,0.18c1.02,0.1,2.04,0.17,3.04,0.14
													c1.31-0.04,2.48-0.21,3.54-0.45c0.39-0.09,0.76-0.19,1.13-0.29c2.73-0.8,4.69-2.04,6.58-2.61
													c0.21-0.07,0.42-0.12,0.62-0.17l0.4-0.1c1.47-0.39,4.17-1.24,6.58-0.64c1.6,0.39,3.08,1.42,3.98,3.66
													C272.29,195.89,270.16,197.73,267.66,200.63z"/>
												<path class="st16" d="M267.66,200.63c-0.12,0.12-0.22,0.26-0.34,0.39c-2.66,3.13-12.48,7.38-22.86,6.82
													c-4.05-0.22-7.65-1.11-10.3-2.57c0.12-0.12,0.22-0.26,0.34-0.39c2.66-3.13,12.48-7.38,22.86-6.82
													C261.41,198.28,265.01,199.17,267.66,200.63z"/>
											</g>
											<path class="st17" d="M242.45,190.11c-0.2,3.76-1.99,6.41-4.78,4.99c-2.35-1.2-1.94-3.07-1.79-4.92
												C237.93,189.6,240.18,189.85,242.45,190.11z"/>
											<path class="st17" d="M250.58,189.99c0,0.01,0,0.02,0,0.03c-0.11,3.9-1.92,6.74-4.79,5.28c-2.39-1.21-1.93-3.12-1.79-5
												c1.02,0.1,2.04,0.17,3.04,0.14C248.35,190.4,249.52,190.23,250.58,189.99z"/>
											<path class="st17" d="M258.29,187.09c0.05,0.54,0.06,1.09,0.05,1.66c-0.12,3.9-1.93,6.74-4.78,5.28
												c-2.11-1.07-2-2.68-1.85-4.33C254.44,188.89,256.4,187.66,258.29,187.09z"/>
											<path class="st17" d="M265.89,186.17c0.01,0.14,0,0.28,0,0.42c-0.12,3.9-1.93,6.74-4.8,5.28
												c-2.4-1.23-1.92-3.16-1.78-5.05C260.79,186.43,263.48,185.58,265.89,186.17z"/>
										</g>
										<path class="st10" d="M202.43,151.8c-1.26-2.81-9.8-3.65-14.89-0.07c-5.09,3.58,0.25,19.4,5.66,21.56
											c4.5,1.81,9.13,2.07,10.83,0.05C205.73,171.32,204.78,157,202.43,151.8z"/>
										<path class="st10" d="M293.16,152.23c1.29-2.8,9.83-3.56,14.89,0.07c5.06,3.63-0.43,19.39-5.84,21.51
											c-4.52,1.76-9.15,1.99-10.84-0.05C289.68,171.72,290.76,157.41,293.16,152.23z"/>
									</g>
									<path class="st18" d="M196.15,162.42c0.86,3.27,0.43,6.21-0.95,6.57c-1.38,0.36-1.06-2.65-1.92-5.92
										c-0.85-3.27-2.56-5.55-1.18-5.92C193.48,156.79,195.29,159.15,196.15,162.42z"/>
									<path class="st18" d="M301.81,159.3c-0.88,3.26-0.49,6.21,0.89,6.58c1.38,0.38,1.09-2.64,1.97-5.9
										c0.88-3.26,2.61-5.53,1.23-5.91C304.52,153.71,302.69,156.04,301.81,159.3z"/>
									<g>
										<g>
											<path class="st18" d="M247.2,184.24c-0.13,0.03-0.26,0.04-0.39,0.01c-3.49-0.59-10.06-3.58-9.97-10.71
												c0.02-1.93,0.71-3.54,2.04-4.79c2.5-2.35,6.62-2.74,8.52-2.79c-0.01-0.78-0.08-2.04-0.3-4.11
												c-0.06-0.55,0.36-1.04,0.89-1.1c0.55-0.06,1.04,0.34,1.1,0.89c0.29,2.75,0.37,4.53,0.26,5.44
												c-0.06,0.52-0.52,0.9-1.04,0.87c-0.05,0-5.43-0.23-8.06,2.25c-0.93,0.88-1.39,1.97-1.41,3.35
												c-0.09,7.19,7.96,8.65,8.31,8.71c0.54,0.09,0.91,0.61,0.82,1.15C247.89,183.85,247.58,184.15,247.2,184.24z"/>
											<path class="st14" d="M215.04,145.13c0,0,9.18-7.04,21.8,9.71L215.04,145.13z"/>
										</g>
									</g>
								</g>
							</g>
							<path class="st14" d="M307.28,115.72c2.6-13,1.5-41.66-8-42.67c-10.72-1.13-11.73,15.13-18.67,7.33
								c-4.22-4.75,4.37-21.21-10.67-22c-12.67-0.67-7.98,14.68-23.48,16.14c-11.71,1.67-21.75-39.37-28.12-0.27
								c-4.01,24.62-18.81-4.69-27.1,1.94c-12.56,10.05,2.6,73.51,2.6,73.51s5.19,17.63,8.1,13.34c1.61-2.37,1-22.96,2.04-29.67
								c0.81-5.2,2.23-17.53,15.23-12.34c0,0,33.37,19.7,50.06,0.01c10.33-7.67,17.77,0.93,19.25,11.26
								c1.2,8.43,2.12,33.16,4.75,35.41c3.09,2.64,7.84-18.01,7.84-18.01S302.55,139.36,307.28,115.72z"/>
							<path class="st19" d="M404.36,166.56c-14.66,0.7-26.69,10.58-36.5,20.62c-11.85,12.12-21.71,25.99-33.02,38.59
								c-7.2,8.02-15.3,16.22-25.4,20.46c-9.89,4.15-20.04,2.18-28.82-3.61c-0.54-0.36-1.04,0.51-0.5,0.86
								c5.68,3.74,12.1,6.23,18.98,6.07c6.23-0.14,12.13-2.61,17.34-5.89c13.18-8.32,23.08-21.52,32.81-33.43
								c8.05-9.85,16.08-19.85,25.57-28.36c8.25-7.4,18.19-13.78,29.55-14.32C405,167.52,405,166.52,404.36,166.56z"/>
							<path class="st19" d="M213.17,245.98c-10.15,1.41-21.1,1.22-29.87-4.73c-7.98-5.41-12.07-14.81-14.67-23.75
								c-2.87-9.9-5.49-19.89-8.57-29.74c-1.99-6.36-4.48-12.48-8.25-18.01c-6.59-9.67-15.68-17.69-24.16-25.64
								c-0.47-0.44-1.18,0.27-0.71,0.71c7.49,7.03,15.17,14.06,21.56,22.13c4.33,5.46,7.38,11.55,9.62,18.12
								c3.14,9.19,5.46,18.68,8.23,27.99c2.69,9.05,5.24,18.05,11.85,25.13c9.06,9.7,22.87,10.47,35.22,8.76
								C214.07,246.85,213.8,245.89,213.17,245.98z"/>
						</g>
					</g>
				</g>
			</g>
		</g>
		<g>
			<g>
				<rect x="142.93" y="430.77" class="st6" width="322.48" height="12"/>
				<rect x="142.93" y="419.27" class="st7" width="322.48" height="13.5"/>
			</g>
			<g>
				<g>
					<g>
						<path class="st12" d="M253.38,428.19c0,7.73-6.27,14-14,14l0,0c-7.73,0-14-6.27-14-14v-77c0-7.73,6.27-14,14-14l0,0
							c7.73,0,14,6.27,14,14V428.19z"/>
						<g>
							<path class="st12" d="M206.74,452c-6.55,0-11.87-5.31-11.87-11.87l0,0c0-6.55,5.31-11.87,11.87-11.87h65.27
								c6.55,0,11.87,5.31,11.87,11.87l0,0c0,6.55-5.31,11.87-11.87,11.87H206.74z"/>
							<path class="st7" d="M272.01,440h-65.27c-4.36,0-8.16-2.36-10.23-5.87c-1.04,1.76-1.64,3.81-1.64,6
								c0,6.55,5.31,11.87,11.87,11.87h65.27c6.55,0,11.87-5.31,11.87-11.87c0-2.19-0.6-4.24-1.64-6
								C280.17,437.64,276.37,440,272.01,440z"/>
						</g>
					</g>
					<g>
						<g>
							<path class="st12" d="M346.91,388.72c0,8.79-7.13,15.92-15.92,15.92H147.76c-8.79,0-15.92-7.13-15.92-15.92V269.5
								c0-8.79,7.13-15.92,15.92-15.92h183.23c8.79,0,15.92,7.13,15.92,15.92V388.72z"/>
							<path class="st20" d="M330.99,253.58H147.76c-8.79,0-15.92,7.13-15.92,15.92v6.67c0-8.79,7.13-19.92,15.92-19.92h183.23
								c8.79,0,15.92,11.13,15.92,19.92v-6.67C346.91,260.71,339.78,253.58,330.99,253.58z"/>
							<path class="st7" d="M330.91,379.85c0,7.48-6.07,13.55-13.55,13.55H161.4c-7.48,0-13.55-6.07-13.55-13.55V278.37
								c0-7.48,6.07-13.55,13.55-13.55h155.96c7.49,0,13.55,6.07,13.55,13.55V379.85z"/>
							<path class="st6" d="M317.36,386.4H161.4c-7.48,0-13.55-6.07-13.55-13.55v7c0,7.48,6.07,13.55,13.55,13.55h155.96
								c7.49,0,13.55-6.07,13.55-13.55v-7C330.91,380.33,324.84,386.4,317.36,386.4z"/>
							<path class="st12" d="M268.26,365.12c0,2.36-1.91,4.28-4.28,4.28h-49.22c-2.36,0-4.28-1.91-4.28-4.28V333.1
								c0-2.36,1.91-4.28,4.28-4.28h49.22c2.36,0,4.28,1.91,4.28,4.28V365.12z"/>
						</g>
						<g>
							<path class="st12" d="M176.8,304.06c-4.1,0-7.42-3.32-7.42-7.42l0,0c0-4.1,3.32-7.42,7.42-7.42h128.87
								c4.1,0,7.42,3.32,7.42,7.42l0,0c0,4.1-3.32,7.42-7.42,7.42H176.8z"/>
							<path class="st6" d="M305.67,296.56H176.8c-2.73,0-5.1-1.48-6.39-3.67c-0.65,1.1-1.03,2.38-1.03,3.75
								c0,4.1,3.32,7.42,7.42,7.42h128.87c4.1,0,7.42-3.32,7.42-7.42c0-1.37-0.38-2.65-1.03-3.75
								C310.77,295.08,308.4,296.56,305.67,296.56z"/>
						</g>
					</g>
				</g>
			</g>
		</g>
	</g>
	
		<linearGradient id="SVGID_1_" gradientUnits="userSpaceOnUse" x1="-44.8948" y1="13.9462" x2="-22.5649" y2="432.6157" gradientTransform="matrix(-1 0 0 1 204.3614 0)">
		<stop  offset="0" style="stop-color:#FFFFFF;stop-opacity:0"/>
		<stop  offset="0.8871" style="stop-color:#5BCAF5"/>
	</linearGradient>
	<polygon class="st21" points="148.86,254.06 328.92,256.14 500,0 0,0 	"/>
	<g>
		<g>
			<g>
				<text transform="matrix(1 0 0 1 42.2454 324.3739)" class="st8 st22 st23">+100 COINS</text>
			</g>
			<polygon class="st19" points="121.77,291.17 114.25,291.17 114.25,283.65 110.81,283.65 110.81,291.17 103.29,291.17 
				103.29,294.61 110.81,294.61 110.81,302.13 114.25,302.13 114.25,294.61 121.77,294.61 			"/>
			<g>
				<g>
					<path class="st19" d="M17.46,251.3c1.24-0.86,3.33-1.95,5.58-2.75c3.21-1.14,5.52-1.23,7.5-0.51c1.62,0.52,2.86,1.69,3.5,3.52
						c0.78,2.25-0.02,4.65-2.01,6.42c0.01,0.02,0.02,0.05,0.03,0.07c2.36-0.23,5.49,0.79,6.64,4.24c0.68,2,0.49,3.77-0.1,5.32
						c-0.86,2.06-2.76,3.7-5.82,5.3c-1.67,0.87-3,1.46-3.87,1.78C25.09,266.89,21.27,259.09,17.46,251.3z M25.07,259.73
						c0.87-0.38,1.74-0.75,2.61-1.11c3.03-1.25,4.22-3.52,3.38-5.78c-1.03-2.74-3.64-3.17-6.82-2.01c-1.44,0.53-2.22,0.96-2.67,1.27
						C22.74,254.64,23.9,257.18,25.07,259.73z M30.28,271.09c0.54-0.15,1.27-0.48,2.16-0.92c2.58-1.29,4.6-3.45,3.36-6.85
						c-1.16-3.18-4.27-3.6-7.35-2.29c-0.77,0.33-1.55,0.67-2.31,1.02C27.52,265.06,28.9,268.07,30.28,271.09z"/>
					<path class="st19" d="M56.18,256.12c0.87,5.74-2.47,9.01-5.92,10.04c-3.86,1.12-7.83-1.02-9.56-6.28
						c-1.83-5.55,0.9-9.84,5.78-10.66C51.52,248.37,55.46,251.38,56.18,256.12z M43.55,258.92c1.07,3.61,3.69,5.71,6.3,5
						c2.55-0.7,4.01-3.68,3.35-7.24c-0.49-2.66-2.59-5.91-6.28-5.25C43.24,252.12,42.63,255.81,43.55,258.92z"/>
					<path class="st19" d="M59.45,252.27c-0.2-1.59-0.4-2.88-0.68-4.15c0.94-0.06,1.88-0.1,2.81-0.14c0.15,0.83,0.29,1.66,0.44,2.5
						c0.02,0,0.05,0,0.07,0c0.69-1.48,2.59-2.94,5.5-2.87c2.44,0.04,6.21,1.5,6.14,6.33c-0.02,2.81-0.03,5.63-0.05,8.44
						c-0.92,0.01-1.83,0.04-2.75,0.08c-0.06-2.77-0.13-5.54-0.19-8.31c-0.04-2.31-1.11-4.31-4.07-4.34
						c-2.06-0.01-3.54,1.33-3.9,2.89c-0.1,0.35-0.13,0.82-0.08,1.29c0.3,3.03,0.61,6.06,0.91,9.09c-0.91,0.11-1.81,0.24-2.72,0.38
						C60.41,259.73,59.93,256,59.45,252.27z"/>
					<path class="st19" d="M91.47,260.4c-0.25,1.25-0.44,2.36-0.53,3.32c-0.81-0.14-1.62-0.27-2.43-0.38
						c0.06-0.68,0.13-1.37,0.19-2.05c-0.02,0-0.04-0.01-0.06-0.01c-0.91,0.88-2.71,1.97-5.38,1.75c-2.36-0.2-5.11-1.46-4.89-6.28
						c0.14-2.66,0.28-5.32,0.42-7.99c1.05,0.13,2.1,0.28,3.14,0.44c-0.2,2.46-0.41,4.93-0.62,7.39c-0.2,2.55,0.55,4.3,3.09,4.57
						c1.87,0.2,3.34-0.67,4.02-1.58c0.22-0.31,0.38-0.7,0.45-1.11c0.42-2.55,0.85-5.1,1.27-7.65c1.03,0.24,2.06,0.51,3.09,0.78
						C92.65,254.53,92.06,257.46,91.47,260.4z"/>
					<path class="st19" d="M95.52,262.36c0.72,0.6,2.05,1.37,3.42,1.74c1.99,0.54,3.16,0.14,3.47-0.73c0.31-0.92-0.3-1.7-2.23-2.9
						c-2.6-1.56-3.68-3.07-3.34-4.46c0.45-1.87,3.03-2.76,6.59-1.39c1.67,0.64,3.02,1.55,3.8,2.27c-0.42,0.35-0.83,0.71-1.24,1.07
						c-0.54-0.51-1.58-1.33-3.1-1.89c-1.76-0.65-2.94-0.27-3.17,0.56c-0.26,0.93,0.59,1.64,2.48,2.88c2.51,1.66,3.53,3.08,2.95,4.59
						c-0.7,1.78-3.19,2.35-6.71,1.46c-1.63-0.42-3.06-1.05-4-1.76C94.79,263.32,95.15,262.84,95.52,262.36z"/>
					<path class="st19" d="M107.41,266.92c0.31-0.73,1.31-0.96,2.36-0.52c1.11,0.46,1.57,1.27,1.23,1.95
						c-0.33,0.66-1.27,0.89-2.35,0.48C107.61,268.44,107.11,267.64,107.41,266.92z M109.43,264.36c1.26-3.25,2.5-6.52,3.74-9.81
						c1.1,0.57,2.18,1.15,3.26,1.76c-1.64,2.97-3.26,5.96-4.87,8.97C110.85,264.97,110.14,264.66,109.43,264.36z"/>
				</g>
			</g>
			<polygon class="st8" points="55.82,174.06 59.51,185.44 71.48,185.44 61.8,192.48 65.5,203.86 55.82,196.82 46.14,203.86 
				49.83,192.48 40.15,185.44 52.12,185.44 			"/>
			<polygon class="st8" points="115.23,136.58 86.59,141.04 95.64,170.49 108.49,168.88 103.17,193.45 125.88,154.09 109.91,157.77 
							"/>
			<polygon class="st8" points="106.24,206.2 108.66,213.66 116.51,213.66 110.16,218.28 112.59,225.74 106.24,221.13 99.89,225.74 
				102.31,218.28 95.96,213.66 103.81,213.66 			"/>
			<polygon class="st8" points="66.09,280.31 68.52,287.77 76.37,287.77 70.02,292.39 72.44,299.85 66.09,295.24 59.74,299.85 
				62.17,292.39 55.82,287.77 63.67,287.77 			"/>
		</g>
		<g>
			<g>
				<text transform="matrix(1 0 0 1 358.5543 275.0647)" class="st8 st22 st24">+100 COINS</text>
			</g>
			<polygon class="st19" points="365.02,299.12 356.61,299.12 356.61,290.71 352.76,290.71 352.76,299.12 344.35,299.12 
				344.35,302.96 352.76,302.96 352.76,311.38 356.61,311.38 356.61,302.96 365.02,302.96 			"/>
			<polygon class="st19" points="378.51,230.41 367.89,230.41 367.89,219.79 363.04,219.79 363.04,230.41 352.43,230.41 
				352.43,235.26 363.04,235.26 363.04,245.87 367.89,245.87 367.89,235.26 378.51,235.26 			"/>
			<g>
				<g>
					<path class="st19" d="M329.78,151.42c0.98-0.68,2.64-1.54,4.42-2.18c2.54-0.9,4.37-0.97,5.93-0.4
						c1.28,0.41,2.27,1.34,2.77,2.79c0.62,1.78-0.01,3.68-1.59,5.08c0.01,0.02,0.01,0.04,0.02,0.06c1.87-0.18,4.34,0.63,5.25,3.35
						c0.54,1.58,0.39,2.98-0.08,4.21c-0.68,1.63-2.18,2.93-4.61,4.19c-1.32,0.69-2.37,1.15-3.06,1.41
						C335.83,163.76,332.81,157.59,329.78,151.42z M335.81,158.1c0.68-0.3,1.37-0.59,2.06-0.88c2.4-0.99,3.34-2.78,2.68-4.58
						c-0.81-2.17-2.88-2.5-5.4-1.59c-1.14,0.42-1.75,0.76-2.11,1C333.96,154.07,334.89,156.08,335.81,158.1z M339.93,167.08
						c0.42-0.12,1-0.38,1.71-0.73c2.04-1.02,3.64-2.73,2.66-5.42c-0.92-2.52-3.38-2.85-5.82-1.81c-0.61,0.26-1.22,0.53-1.83,0.81
						C337.75,162.32,338.84,164.7,339.93,167.08z"/>
					<path class="st19" d="M360.43,155.24c0.69,4.54-1.96,7.13-4.68,7.95c-3.05,0.89-6.2-0.81-7.57-4.97
						c-1.45-4.4,0.71-7.79,4.57-8.44C356.75,149.1,359.86,151.49,360.43,155.24z M350.44,157.46c0.84,2.86,2.92,4.52,4.99,3.95
						c2.02-0.55,3.17-2.91,2.65-5.73c-0.39-2.11-2.05-4.68-4.97-4.16C350.19,152.07,349.71,154.99,350.44,157.46z"/>
					<path class="st19" d="M363.03,152.19c-0.16-1.25-0.32-2.28-0.54-3.28c0.74-0.05,1.48-0.08,2.23-0.11
						c0.12,0.66,0.23,1.32,0.35,1.98c0.02,0,0.04,0,0.06,0c0.54-1.17,2.05-2.33,4.35-2.27c1.93,0.03,4.92,1.19,4.86,5.01
						c-0.01,2.23-0.03,4.45-0.04,6.68c-0.73,0.01-1.45,0.03-2.18,0.07c-0.05-2.19-0.1-4.38-0.15-6.58
						c-0.04-1.83-0.88-3.41-3.22-3.43c-1.63,0-2.81,1.05-3.09,2.29c-0.08,0.28-0.1,0.65-0.06,1.02c0.24,2.4,0.48,4.79,0.72,7.19
						c-0.72,0.09-1.43,0.19-2.15,0.3C363.79,158.1,363.41,155.14,363.03,152.19z"/>
					<path class="st19" d="M388.38,158.62c-0.2,0.99-0.35,1.87-0.42,2.63c-0.64-0.11-1.28-0.21-1.92-0.3
						c0.05-0.54,0.1-1.08,0.15-1.62c-0.02,0-0.03-0.01-0.05-0.01c-0.72,0.7-2.14,1.56-4.26,1.39c-1.86-0.16-4.05-1.16-3.87-4.97
						c0.11-2.11,0.22-4.21,0.33-6.32c0.83,0.1,1.66,0.22,2.49,0.35c-0.16,1.95-0.32,3.9-0.49,5.85c-0.16,2.02,0.44,3.4,2.44,3.61
						c1.48,0.16,2.64-0.53,3.18-1.25c0.17-0.24,0.3-0.56,0.36-0.88c0.34-2.02,0.67-4.03,1.01-6.05c0.82,0.19,1.63,0.4,2.44,0.62
						C389.31,153.98,388.84,156.3,388.38,158.62z"/>
					<path class="st19" d="M391.59,160.18c0.57,0.48,1.62,1.09,2.71,1.38c1.58,0.43,2.5,0.11,2.74-0.58
						c0.25-0.72-0.24-1.34-1.77-2.29c-2.06-1.24-2.92-2.43-2.64-3.53c0.35-1.48,2.39-2.18,5.22-1.1c1.32,0.51,2.39,1.23,3,1.8
						c-0.33,0.28-0.65,0.56-0.98,0.84c-0.43-0.4-1.25-1.05-2.45-1.49c-1.39-0.51-2.33-0.22-2.51,0.45c-0.21,0.74,0.47,1.3,1.96,2.28
						c1.99,1.31,2.79,2.44,2.33,3.63c-0.55,1.41-2.52,1.86-5.31,1.16c-1.29-0.33-2.42-0.83-3.17-1.4
						C391.01,160.94,391.3,160.55,391.59,160.18z"/>
					<path class="st19" d="M401,163.79c0.24-0.58,1.04-0.76,1.87-0.41c0.88,0.36,1.24,1,0.98,1.54c-0.26,0.52-1,0.71-1.86,0.38
						C401.16,164.99,400.77,164.35,401,163.79z M402.6,161.76c1-2.57,1.98-5.16,2.96-7.77c0.87,0.45,1.73,0.91,2.58,1.39
						c-1.3,2.35-2.58,4.72-3.86,7.1C403.72,162.24,403.16,162,402.6,161.76z"/>
				</g>
			</g>
			<polygon class="st8" points="403.01,294.72 405.19,301.45 412.27,301.45 406.54,305.61 408.73,312.33 403.01,308.18 
				397.28,312.33 399.47,305.61 393.75,301.45 400.82,301.45 			"/>
			<polygon class="st8" points="450.69,221.91 453.4,230.25 462.18,230.25 455.07,235.41 457.79,243.76 450.69,238.6 443.59,243.76 
				446.3,235.41 439.2,230.25 447.97,230.25 			"/>
			<polygon class="st8" points="395.7,174.43 400.63,189.63 416.61,189.63 403.69,199.02 408.62,214.22 395.7,204.82 382.77,214.22 
				387.71,199.02 374.78,189.63 390.76,189.63 			"/>
			<polygon class="st8" points="474.54,163.33 445.31,149.33 435.02,182.21 447.89,188.85 427.45,208.14 473.29,186.21 
				456.23,179.5 			"/>
			<g>
				<text transform="matrix(1 0 0 1 42.2454 324.3739)" class="st8 st22 st23">+100 COINS</text>
			</g>
			<polygon class="st8" points="55.82,174.06 59.51,185.44 71.48,185.44 61.8,192.48 65.5,203.86 55.82,196.82 46.14,203.86 
				49.83,192.48 40.15,185.44 52.12,185.44 			"/>
			<polygon class="st8" points="115.23,136.58 86.59,141.04 95.64,170.49 108.49,168.88 103.17,193.45 125.88,154.09 109.91,157.77 
							"/>
			<polygon class="st8" points="106.24,206.2 108.66,213.66 116.51,213.66 110.16,218.28 112.59,225.74 106.24,221.13 99.89,225.74 
				102.31,218.28 95.96,213.66 103.81,213.66 			"/>
			<polygon class="st8" points="66.09,280.31 68.52,287.77 76.37,287.77 70.02,292.39 72.44,299.85 66.09,295.24 59.74,299.85 
				62.17,292.39 55.82,287.77 63.67,287.77 			"/>
			<g>
				<text transform="matrix(1 0 0 1 358.5543 275.0647)" class="st8 st22 st24">+100 COINS</text>
			</g>
			<polygon class="st8" points="403.01,294.72 405.19,301.45 412.27,301.45 406.54,305.61 408.73,312.33 403.01,308.18 
				397.28,312.33 399.47,305.61 393.75,301.45 400.82,301.45 			"/>
			<polygon class="st8" points="450.69,221.91 453.4,230.25 462.18,230.25 455.07,235.41 457.79,243.76 450.69,238.6 443.59,243.76 
				446.3,235.41 439.2,230.25 447.97,230.25 			"/>
			<polygon class="st8" points="395.7,174.43 400.63,189.63 416.61,189.63 403.69,199.02 408.62,214.22 395.7,204.82 382.77,214.22 
				387.71,199.02 374.78,189.63 390.76,189.63 			"/>
			<polygon class="st8" points="474.54,163.33 445.31,149.33 435.02,182.21 447.89,188.85 427.45,208.14 473.29,186.21 
				456.23,179.5 			"/>
			<g>
				<text transform="matrix(1 0 0 1 42.2454 324.3739)" class="st8 st22 st23">+100 COINS</text>
			</g>
			<polygon class="st8" points="55.82,174.06 59.51,185.44 71.48,185.44 61.8,192.48 65.5,203.86 55.82,196.82 46.14,203.86 
				49.83,192.48 40.15,185.44 52.12,185.44 			"/>
			<polygon class="st8" points="115.23,136.58 86.59,141.04 95.64,170.49 108.49,168.88 103.17,193.45 125.88,154.09 109.91,157.77 
							"/>
			<polygon class="st8" points="106.24,206.2 108.66,213.66 116.51,213.66 110.16,218.28 112.59,225.74 106.24,221.13 99.89,225.74 
				102.31,218.28 95.96,213.66 103.81,213.66 			"/>
			<polygon class="st8" points="66.09,280.31 68.52,287.77 76.37,287.77 70.02,292.39 72.44,299.85 66.09,295.24 59.74,299.85 
				62.17,292.39 55.82,287.77 63.67,287.77 			"/>
			<g>
				<text transform="matrix(1 0 0 1 42.2454 324.3739)" class="st8 st22 st23">+100 COINS</text>
			</g>
			<polygon class="st8" points="55.82,174.06 59.51,185.44 71.48,185.44 61.8,192.48 65.5,203.86 55.82,196.82 46.14,203.86 
				49.83,192.48 40.15,185.44 52.12,185.44 			"/>
			<polygon class="st8" points="115.23,136.58 86.59,141.04 95.64,170.49 108.49,168.88 103.17,193.45 125.88,154.09 109.91,157.77 
							"/>
			<polygon class="st8" points="106.24,206.2 108.66,213.66 116.51,213.66 110.16,218.28 112.59,225.74 106.24,221.13 99.89,225.74 
				102.31,218.28 95.96,213.66 103.81,213.66 			"/>
			<polygon class="st8" points="66.09,280.31 68.52,287.77 76.37,287.77 70.02,292.39 72.44,299.85 66.09,295.24 59.74,299.85 
				62.17,292.39 55.82,287.77 63.67,287.77 			"/>
			<g>
				<text transform="matrix(1 0 0 1 358.5543 275.0647)" class="st8 st22 st24">+100 COINS</text>
			</g>
			<polygon class="st8" points="403.01,294.72 405.19,301.45 412.27,301.45 406.54,305.61 408.73,312.33 403.01,308.18 
				397.28,312.33 399.47,305.61 393.75,301.45 400.82,301.45 			"/>
			<polygon class="st8" points="450.69,221.91 453.4,230.25 462.18,230.25 455.07,235.41 457.79,243.76 450.69,238.6 443.59,243.76 
				446.3,235.41 439.2,230.25 447.97,230.25 			"/>
			<polygon class="st8" points="395.7,174.43 400.63,189.63 416.61,189.63 403.69,199.02 408.62,214.22 395.7,204.82 382.77,214.22 
				387.71,199.02 374.78,189.63 390.76,189.63 			"/>
			<polygon class="st8" points="474.54,163.33 445.31,149.33 435.02,182.21 447.89,188.85 427.45,208.14 473.29,186.21 
				456.23,179.5 			"/>
		</g>
	</g>
</g>
</svg>
