<svg width="16" height="16" viewBox="0 0 16 16" fill="none" xmlns="http://www.w3.org/2000/svg">
<path d="M11.4355 15.3516C12.3884 15.8529 13.3093 15.1853 13.1271 14.1222L12.4426 10.1373C12.4498 10.1764 15.3289 7.34622 15.3289 7.34622C16.1004 6.59422 15.7493 5.51245 14.6826 5.35689L10.6809 4.77556C10.72 4.78178 8.9182 1.16934 8.9182 1.16934C8.44087 0.203114 7.30398 0.202225 6.82664 1.16934L5.03731 4.79511C5.05509 4.75956 1.0622 5.35689 1.0622 5.35689C-0.00446627 5.51245 -0.355577 6.59245 0.415978 7.34622L3.31109 10.1684C3.28353 10.1409 2.61776 14.1222 2.61776 14.1222C2.43553 15.1844 3.35553 15.8538 4.30931 15.3516L7.88887 13.4698C7.85331 13.4884 11.4355 15.3516 11.4355 15.3516Z" fill="#E4E7EC"/>
</svg>
